<svg width="226" height="60" viewBox="0 0 226 60" fill="none" xmlns="http://www.w3.org/2000/svg">
<path d="M26.0007 56.5982C21.7335 56.5982 17.8053 55.6012 14.2161 53.6072C10.6269 51.5733 7.79543 48.7817 5.72166 45.2324C3.6479 41.6431 2.61101 37.6551 2.61101 33.2683C2.61101 28.6422 3.6479 24.5545 5.72166 21.0052C7.79543 17.4558 10.587 14.724 14.0965 12.8098C17.6059 10.8557 21.4544 9.87861 25.6418 9.87861C29.6697 9.87861 33.0595 10.5965 35.8112 12.0321C38.6028 13.4279 41.2349 15.402 43.7075 17.9543C43.7873 18.0341 43.9069 18.074 44.0664 18.074C44.3057 18.074 44.7245 17.8945 45.3227 17.5356L46.0405 18.4329L37.7853 24.9533L37.0675 24.056C37.3067 23.8965 37.4862 23.6971 37.6058 23.4578C37.7654 23.1786 37.7654 22.9792 37.6058 22.8596C35.9309 21.2245 34.1762 19.9882 32.3417 19.1507C30.5471 18.2734 28.3536 17.8347 25.7614 17.8347C23.0496 17.8347 20.5571 18.5127 18.2839 19.8686C16.0107 21.1846 14.2161 23.0191 12.9001 25.372C11.584 27.725 10.926 30.3571 10.926 33.2683C10.926 36.0599 11.6239 38.6123 13.0197 40.9253C14.4155 43.1985 16.27 44.9931 18.583 46.3091C20.8961 47.6252 23.3686 48.2832 26.0007 48.2832C28.4733 48.2832 30.5869 47.8644 32.3417 47.027C34.0964 46.1496 35.7514 44.8535 37.3067 43.1387L37.4264 42.8994C37.4264 42.7 37.3267 42.4806 37.1273 42.2413C36.9678 41.9622 36.7883 41.7628 36.5889 41.6431L37.3666 40.8057L46.2798 48.2832L45.5619 49.1805C45.3227 48.9811 45.0236 48.8016 44.6646 48.6421C44.3057 48.4826 44.0664 48.4826 43.9468 48.6421C41.4343 51.354 38.8022 53.3679 36.0505 54.684C33.2988 55.9601 29.9489 56.5982 26.0007 56.5982Z" fill="url(#paint0_linear_530_6591)"/>
<path d="M27.4169 42.7437C25.4494 42.7437 23.708 42.3316 22.1926 41.5074C20.7037 40.6566 19.5339 39.5001 18.6831 38.0378C17.8589 36.5756 17.4468 34.9272 17.4468 33.0927C17.4468 31.2848 17.8589 29.6364 18.6831 28.1476C19.5339 26.6587 20.717 25.4889 22.2324 24.6381C23.7479 23.7607 25.476 23.3221 27.4169 23.3221C29.2779 23.3221 30.9662 23.7475 32.4816 24.5982C33.9971 25.4224 35.1935 26.5789 36.0709 28.0678C36.9482 29.5301 37.3869 31.205 37.3869 33.0927C37.3869 34.7411 36.9881 36.3097 36.1905 37.7986C35.4195 39.2608 34.2763 40.4572 32.7608 41.3878C31.2454 42.2917 29.464 42.7437 27.4169 42.7437ZM27.4169 38.1575C28.9855 38.1575 30.2484 37.7055 31.2055 36.8016C32.1892 35.871 32.681 34.6746 32.681 33.2123C32.681 31.6969 32.1892 30.4473 31.2055 29.4636C30.2484 28.4799 28.9855 27.988 27.4169 27.988C25.9546 27.988 24.7316 28.4799 23.7479 29.4636C22.7642 30.4207 22.2723 31.6304 22.2723 33.0927C22.2723 34.6347 22.7642 35.871 23.7479 36.8016C24.7316 37.7055 25.9546 38.1575 27.4169 38.1575ZM61.4072 41.0687C61.4072 41.2017 61.5003 41.308 61.6864 41.3878C61.8991 41.4675 62.1118 41.5074 62.3245 41.5074V42.2651H55.3055V41.5074C55.5182 41.5074 55.7176 41.4675 55.9038 41.3878C56.1164 41.308 56.2228 41.2017 56.2228 41.0687V32.7737C56.2228 31.4177 55.8905 30.2612 55.2258 29.3041C54.5611 28.3204 53.5641 27.8285 52.2348 27.8285C50.8789 27.8285 49.7755 28.2805 48.9247 29.1844C48.1005 30.0884 47.6884 31.3912 47.6884 33.0927V41.0687C47.6884 41.2017 47.7815 41.308 47.9676 41.3878C48.1803 41.4675 48.393 41.5074 48.6057 41.5074V42.2651H41.6267V41.5074C41.8394 41.5074 42.0388 41.4675 42.2249 41.3878C42.4376 41.308 42.5439 41.2017 42.5439 41.0687V25.1167C42.5439 24.9837 42.4376 24.8774 42.2249 24.7976C42.0388 24.7179 41.8526 24.678 41.6665 24.678V23.9203H47.6884V25.5554C48.3797 24.9173 49.1906 24.4254 50.1211 24.0798C51.0783 23.7076 52.0487 23.5215 53.0324 23.5215C54.7339 23.5215 56.2095 23.8804 57.4591 24.5982C58.7352 25.3161 59.7057 26.2865 60.3703 27.5095C61.0616 28.7059 61.4072 30.0485 61.4072 31.5374V41.0687ZM86.7841 41.0687C86.7841 41.2017 86.8771 41.308 87.0632 41.3878C87.2759 41.4675 87.4886 41.5074 87.7013 41.5074V42.2651H80.6824V41.5074C80.8951 41.5074 81.0945 41.4675 81.2806 41.3878C81.4933 41.308 81.5996 41.2017 81.5996 41.0687V32.7737C81.5996 31.4177 81.2673 30.2612 80.6026 29.3041C79.938 28.3204 78.941 27.8285 77.6116 27.8285C76.2557 27.8285 75.1524 28.2805 74.3016 29.1844C73.4774 30.0884 73.0653 31.3912 73.0653 33.0927V41.0687C73.0653 41.2017 73.1584 41.308 73.3445 41.3878C73.5572 41.4675 73.7698 41.5074 73.9825 41.5074V42.2651H67.0035V41.5074C67.2162 41.5074 67.4156 41.4675 67.6017 41.3878C67.8144 41.308 67.9208 41.2017 67.9208 41.0687V25.1167C67.9208 24.9837 67.8144 24.8774 67.6017 24.7976C67.4156 24.7179 67.2295 24.678 67.0434 24.678V23.9203H73.0653V25.5554C73.7566 24.9173 74.5674 24.4254 75.498 24.0798C76.4551 23.7076 77.4255 23.5215 78.4092 23.5215C80.1108 23.5215 81.5864 23.8804 82.8359 24.5982C84.1121 25.3161 85.0825 26.2865 85.7472 27.5095C86.4384 28.7059 86.7841 30.0485 86.7841 31.5374V41.0687ZM101.672 23.0828C103.72 23.0828 105.488 23.5348 106.977 24.4387C108.465 25.3161 109.595 26.5125 110.366 28.0279C111.137 29.5434 111.523 31.2183 111.523 33.0528C111.523 33.6111 111.483 34.1695 111.403 34.7278H96.8071C96.9134 36.004 97.4717 37.001 98.482 37.7188C99.4923 38.4366 100.702 38.7956 102.111 38.7956C103.068 38.7956 103.866 38.6626 104.504 38.3968C105.169 38.1309 105.754 37.7321 106.259 37.2004C106.312 37.094 106.338 37.0275 106.338 37.001C106.338 36.8946 106.299 36.7883 106.219 36.6819C106.139 36.549 106.059 36.4559 105.979 36.4028L106.458 35.8046L110.885 39.2741L110.446 39.8723C110.047 39.633 109.768 39.6065 109.609 39.7926C107.748 42.0259 105.248 43.1425 102.111 43.1425C100.091 43.1425 98.3092 42.7038 96.7672 41.8265C95.2252 40.9225 94.0287 39.7261 93.178 38.2372C92.3538 36.7218 91.9417 35.0468 91.9417 33.2123C91.9417 31.2715 92.3538 29.5301 93.178 27.988C94.0022 26.446 95.1454 25.2496 96.6077 24.3988C98.0965 23.5215 99.7848 23.0828 101.672 23.0828ZM106.737 31.0189C106.631 29.9289 106.073 29.0116 105.062 28.2672C104.079 27.4962 102.962 27.1107 101.712 27.1107C100.463 27.1107 99.386 27.4962 98.482 28.2672C97.5781 29.0116 97.0331 29.9289 96.8469 31.0189H106.737ZM124.63 43.1026C122.928 43.1026 121.347 42.6772 119.884 41.8265C118.422 40.9757 117.252 39.8192 116.375 38.3569C115.524 36.8946 115.099 35.2994 115.099 33.5713C115.099 31.5241 115.524 29.7295 116.375 28.1874C117.252 26.6188 118.422 25.4224 119.884 24.5982C121.347 23.7475 122.955 23.3221 124.71 23.3221C125.959 23.3221 127.023 23.4683 127.9 23.7608C128.804 24.0532 129.522 24.4121 130.054 24.8375C130.612 25.2363 131.303 25.8079 132.127 26.5524C132.181 26.6055 132.247 26.6321 132.327 26.6321C132.433 26.6321 132.553 26.5922 132.686 26.5125C132.845 26.4327 132.965 26.353 133.045 26.2732L133.563 26.8315L129.256 30.8195L128.738 30.2612C128.871 30.1549 128.977 30.0086 129.057 29.8225C129.163 29.6098 129.176 29.4503 129.097 29.344C128.139 28.1742 126.823 27.5892 125.148 27.5892C123.633 27.5892 122.357 28.0944 121.32 29.1047C120.31 30.115 119.805 31.431 119.805 33.0528C119.805 34.7278 120.296 36.0704 121.28 37.0807C122.264 38.091 123.553 38.5962 125.148 38.5962C125.946 38.5962 126.597 38.5031 127.103 38.317C127.608 38.1043 128.179 37.7188 128.817 37.1605C128.871 37.1073 128.897 37.0408 128.897 36.9611C128.897 36.8016 128.804 36.6287 128.618 36.4426L129.097 35.8444L133.404 39.4336L132.925 39.992C132.5 39.7527 132.207 39.7128 132.048 39.8723C131.064 40.9624 130.027 41.7733 128.937 42.305C127.874 42.8368 126.438 43.1026 124.63 43.1026ZM147.669 23.1227V29.1844H146.911C146.911 28.9983 146.871 28.8255 146.791 28.666C146.711 28.4799 146.605 28.3868 146.472 28.3868H143.88V41.0687C143.88 41.2017 143.973 41.308 144.159 41.3878C144.345 41.4675 144.531 41.5074 144.717 41.5074V42.2651H138.217V41.5074C138.403 41.5074 138.589 41.4675 138.775 41.3878C138.961 41.308 139.054 41.2017 139.054 41.0687V28.3868H137.14C137.007 28.3868 136.901 28.4799 136.821 28.666C136.741 28.8255 136.702 28.9983 136.702 29.1844H135.944V23.1227H136.702C136.702 23.3088 136.741 23.4949 136.821 23.681C136.901 23.8405 137.007 23.9203 137.14 23.9203H139.054V19.2543C139.054 19.1214 138.961 19.015 138.775 18.9353C138.589 18.8555 138.403 18.8156 138.217 18.8156V18.0579H144.717V18.8156C144.531 18.8156 144.345 18.8555 144.159 18.9353C143.973 19.015 143.88 19.1214 143.88 19.2543V23.9203H146.472C146.605 23.9203 146.711 23.8405 146.791 23.681C146.871 23.4949 146.911 23.3088 146.911 23.1227H147.669ZM155.325 20.5703C154.474 20.5703 153.743 20.2779 153.132 19.693C152.547 19.1081 152.254 18.3769 152.254 17.4996C152.254 16.6754 152.547 15.9708 153.132 15.3859C153.743 14.7744 154.474 14.4687 155.325 14.4687C156.176 14.4687 156.894 14.7744 157.478 15.3859C158.063 15.9708 158.356 16.6754 158.356 17.4996C158.356 18.3769 158.063 19.1081 157.478 19.693C156.894 20.2779 156.176 20.5703 155.325 20.5703ZM152.733 25.1167C152.733 24.9837 152.626 24.8774 152.414 24.7976C152.228 24.7179 152.041 24.678 151.855 24.678V23.9203H158.715V24.678C158.529 24.678 158.329 24.7179 158.117 24.7976C157.93 24.8774 157.837 24.9837 157.837 25.1167V41.0687C157.837 41.2017 157.93 41.308 158.117 41.3878C158.329 41.4675 158.529 41.5074 158.715 41.5074V42.2651H151.855V41.5074C152.041 41.5074 152.228 41.4675 152.414 41.3878C152.626 41.308 152.733 41.2017 152.733 41.0687V25.1167ZM173.031 43.1026C171.33 43.1026 169.748 42.6772 168.286 41.8265C166.823 40.9757 165.654 39.8192 164.776 38.3569C163.925 36.8946 163.5 35.2994 163.5 33.5713C163.5 31.5241 163.925 29.7295 164.776 28.1874C165.654 26.6188 166.823 25.4224 168.286 24.5982C169.748 23.7475 171.356 23.3221 173.111 23.3221C174.361 23.3221 175.424 23.4683 176.302 23.7608C177.206 24.0532 177.923 24.4121 178.455 24.8375C179.013 25.2363 179.705 25.8079 180.529 26.5524C180.582 26.6055 180.649 26.6321 180.728 26.6321C180.835 26.6321 180.954 26.5922 181.087 26.5125C181.247 26.4327 181.366 26.353 181.446 26.2732L181.965 26.8315L177.658 30.8195L177.139 30.2612C177.272 30.1549 177.378 30.0086 177.458 29.8225C177.564 29.6098 177.578 29.4503 177.498 29.344C176.541 28.1742 175.225 27.5892 173.55 27.5892C172.034 27.5892 170.758 28.0944 169.721 29.1047C168.711 30.115 168.206 31.431 168.206 33.0528C168.206 34.7278 168.698 36.0704 169.681 37.0807C170.665 38.091 171.955 38.5962 173.55 38.5962C174.347 38.5962 174.999 38.5031 175.504 38.317C176.009 38.1043 176.581 37.7188 177.219 37.1605C177.272 37.1073 177.299 37.0408 177.299 36.9611C177.299 36.8016 177.206 36.6287 177.019 36.4426L177.498 35.8444L181.805 39.4336L181.326 39.992C180.901 39.7527 180.609 39.7128 180.449 39.8723C179.465 40.9624 178.429 41.7733 177.338 42.305C176.275 42.8368 174.839 43.1026 173.031 43.1026ZM203.328 41.0687C203.328 41.2017 203.421 41.308 203.607 41.3878C203.82 41.4675 204.019 41.5074 204.206 41.5074V42.2651H199.26V40.7896C197.851 42.0126 196.216 42.6241 194.355 42.6241C191.564 42.6241 189.516 41.8265 188.214 40.2312C186.911 38.6095 186.259 36.5889 186.259 34.1695V25.1167C186.259 24.9837 186.153 24.8774 185.94 24.7976C185.754 24.7179 185.568 24.678 185.382 24.678V23.9203H192.162V24.678C191.976 24.678 191.776 24.7179 191.564 24.7976C191.377 24.8774 191.284 24.9837 191.284 25.1167V33.8504C191.284 34.9937 191.577 35.9641 192.162 36.7617C192.747 37.5327 193.651 37.9182 194.874 37.9182C196.043 37.9182 196.921 37.5593 197.506 36.8414C198.091 36.1236 198.383 35.2064 198.383 34.0897V25.1167C198.383 24.9837 198.277 24.8774 198.064 24.7976C197.878 24.7179 197.692 24.678 197.506 24.678V23.9203H204.206V24.678C204.019 24.678 203.82 24.7179 203.607 24.7976C203.421 24.8774 203.328 24.9837 203.328 25.1167V41.0687ZM216.626 42.8633C215.27 42.8633 213.954 42.5842 212.678 42.0259C211.429 41.4675 210.166 40.6699 208.89 39.633C208.836 39.5799 208.77 39.5533 208.69 39.5533C208.477 39.5533 208.252 39.6729 208.012 39.9122L207.454 39.4336L211.442 34.8873L212 35.4058C211.894 35.5387 211.801 35.6982 211.721 35.8843C211.668 36.0704 211.694 36.2166 211.801 36.323C212.678 37.1206 213.489 37.7188 214.234 38.1176C215.005 38.4898 215.802 38.6759 216.626 38.6759C218.674 38.6759 219.697 37.998 219.697 36.642C219.697 36.0305 219.378 35.5653 218.74 35.2462C218.128 34.9006 217.092 34.5284 215.629 34.1296C213.742 33.6244 212.372 32.9731 211.522 32.1755C210.671 31.3513 210.246 30.2346 210.246 28.8255C210.246 27.1506 210.791 25.7946 211.881 24.7578C212.971 23.6943 214.46 23.1625 216.347 23.1625C217.304 23.1625 218.168 23.3088 218.939 23.6012C219.71 23.8937 220.641 24.4121 221.731 25.1566C221.758 25.1831 221.811 25.1964 221.891 25.1964C222.023 25.1964 222.156 25.1566 222.289 25.0768C222.422 24.997 222.515 24.9173 222.568 24.8375L223.167 25.356L219.577 29.4237L219.019 28.9452C219.125 28.8388 219.192 28.7059 219.219 28.5464C219.272 28.3603 219.245 28.214 219.139 28.1077C218.66 27.7355 218.195 27.4563 217.743 27.2702C217.318 27.0841 216.839 26.991 216.307 26.991C215.749 26.991 215.31 27.0974 214.991 27.3101C214.672 27.5228 214.513 27.8418 214.513 28.2672C214.513 28.6128 214.606 28.892 214.792 29.1047C214.978 29.3174 215.31 29.5301 215.789 29.7428C216.294 29.9555 217.052 30.2213 218.062 30.5404C219.923 31.0987 221.385 31.883 222.449 32.8933C223.512 33.877 224.044 35.1 224.044 36.5623C224.044 38.7158 223.366 40.311 222.01 41.3479C220.654 42.3582 218.86 42.8633 216.626 42.8633Z" fill="url(#paint1_linear_530_6591)"/>
<defs>
<linearGradient id="paint0_linear_530_6591" x1="23.8164" y1="4.45844e-06" x2="45.0177" y2="51.5096" gradientUnits="userSpaceOnUse">
<stop stop-color="#023564"/>
<stop offset="1" stop-color="#2A97FC"/>
</linearGradient>
<linearGradient id="paint1_linear_530_6591" x1="16.051" y1="25.2651" x2="225.051" y2="25.2651" gradientUnits="userSpaceOnUse">
<stop stop-color="#023564"/>
<stop offset="1" stop-color="#2A97FC"/>
</linearGradient>
</defs>
</svg>
