<svg width="40" height="40" viewBox="0 0 40 40" fill="none" xmlns="http://www.w3.org/2000/svg">
<path d="M11.667 30V28.3333C11.667 26.1232 12.545 24.0036 14.1078 22.4408C15.6706 20.878 17.7902 20 20.0003 20C22.2105 20 24.3301 20.878 25.8929 22.4408C27.4557 24.0036 28.3337 26.1232 28.3337 28.3333V30M1.66699 30V28.3333C1.66699 27.0072 2.19378 25.7355 3.13146 24.7978C4.06914 23.8601 5.34091 23.3333 6.66699 23.3333M38.3337 30V28.3333C38.3337 27.0072 37.8069 25.7355 36.8692 24.7978C35.9315 23.8601 34.6597 23.3333 33.3337 23.3333M20.0003 20C21.3264 20 22.5982 19.4732 23.5359 18.5355C24.4735 17.5979 25.0003 16.3261 25.0003 15C25.0003 13.6739 24.4735 12.4021 23.5359 11.4645C22.5982 10.5268 21.3264 10 20.0003 10C18.6742 10 17.4025 10.5268 16.4648 11.4645C15.5271 12.4021 15.0003 13.6739 15.0003 15C15.0003 16.3261 15.5271 17.5979 16.4648 18.5355C17.4025 19.4732 18.6742 20 20.0003 20ZM6.66699 23.3333C7.55105 23.3333 8.39889 22.9821 9.02401 22.357C9.64914 21.7319 10.0003 20.8841 10.0003 20C10.0003 19.1159 9.64914 18.2681 9.02401 17.643C8.39889 17.0179 7.55105 16.6667 6.66699 16.6667C5.78294 16.6667 4.93509 17.0179 4.30997 17.643C3.68485 18.2681 3.33366 19.1159 3.33366 20C3.33366 20.8841 3.68485 21.7319 4.30997 22.357C4.93509 22.9821 5.78294 23.3333 6.66699 23.3333ZM33.3337 23.3333C34.2177 23.3333 35.0656 22.9821 35.6907 22.357C36.3158 21.7319 36.667 20.8841 36.667 20C36.667 19.1159 36.3158 18.2681 35.6907 17.643C35.0656 17.0179 34.2177 16.6667 33.3337 16.6667C32.4496 16.6667 31.6018 17.0179 30.9766 17.643C30.3515 18.2681 30.0003 19.1159 30.0003 20C30.0003 20.8841 30.3515 21.7319 30.9766 22.357C31.6018 22.9821 32.4496 23.3333 33.3337 23.3333Z" fill="#023564"/>
</svg>
