<svg width="41" height="40" viewBox="0 0 41 40" fill="none" xmlns="http://www.w3.org/2000/svg">
<path d="M20.4995 3.33203C17.4053 3.33203 14.4378 4.56119 12.2499 6.74912C10.062 8.93704 8.83281 11.9045 8.83281 14.9987V20.8787C8.83305 21.1372 8.77314 21.3923 8.65781 21.6237L5.79614 27.3454C5.65635 27.6249 5.59035 27.9355 5.60439 28.2477C5.61844 28.56 5.71206 28.8634 5.87639 29.1293C6.04071 29.3951 6.27026 29.6146 6.54326 29.7667C6.81625 29.9189 7.12361 29.9987 7.43614 29.9987H33.5628C33.8753 29.9987 34.1827 29.9189 34.4557 29.7667C34.7287 29.6146 34.9583 29.3951 35.1226 29.1293C35.2869 28.8634 35.3805 28.56 35.3946 28.2477C35.4086 27.9355 35.3426 27.6249 35.2028 27.3454L32.3428 21.6237C32.2269 21.3924 32.1664 21.1374 32.1661 20.8787V14.9987C32.1661 11.9045 30.937 8.93704 28.7491 6.74912C26.5611 4.56119 23.5937 3.33203 20.4995 3.33203ZM20.4995 34.9987C19.4651 34.9992 18.4559 34.6789 17.6112 34.0819C16.7664 33.4849 16.1276 32.6406 15.7828 31.6654H25.2161C24.8713 32.6406 24.2325 33.4849 23.3878 34.0819C22.543 34.6789 21.5339 34.9992 20.4995 34.9987Z" fill="#023564"/>
</svg>
