<svg width="31" height="30" viewBox="0 0 31 30" fill="none" xmlns="http://www.w3.org/2000/svg">
<path d="M28.1714 17.0286H17.5286V27.6714C17.5286 28.236 17.3043 28.7774 16.9051 29.1766C16.5059 29.5757 15.9645 29.8 15.4 29.8C14.8355 29.8 14.2941 29.5757 13.8949 29.1766C13.4957 28.7774 13.2714 28.236 13.2714 27.6714V17.0286H2.62857C2.06404 17.0286 1.52263 16.8043 1.12344 16.4051C0.72426 16.0059 0.5 15.4645 0.5 14.9C0.5 14.3355 0.72426 13.7941 1.12344 13.3949C1.52263 12.9957 2.06404 12.7714 2.62857 12.7714H13.2714V2.12857C13.2714 1.56404 13.4957 1.02263 13.8949 0.623443C14.2941 0.224259 14.8355 0 15.4 0C15.9645 0 16.5059 0.224259 16.9051 0.623443C17.3043 1.02263 17.5286 1.56404 17.5286 2.12857V12.7714H28.1714C28.736 12.7714 29.2774 12.9957 29.6766 13.3949C30.0757 13.7941 30.3 14.3355 30.3 14.9C30.3 15.4645 30.0757 16.0059 29.6766 16.4051C29.2774 16.8043 28.736 17.0286 28.1714 17.0286Z" fill="#023564"/>
</svg>
