<svg width="41" height="40" viewBox="0 0 41 40" fill="none" xmlns="http://www.w3.org/2000/svg">
<path d="M20.0921 5H20.2379C23.8298 5 26.6217 5 28.7951 5.23254C30.9934 5.46972 32.7343 5.96114 34.1233 7.07111C35.5495 8.21208 36.2161 9.69565 36.5308 11.5668C36.83 13.3527 36.83 15.6253 36.83 18.4591V18.7428C36.83 21.5053 36.83 23.4168 36.52 24.8414C36.3745 25.5735 36.0875 26.2702 35.6751 26.8924C35.2658 27.5001 34.7449 28.0117 34.1248 28.5077C32.7343 29.6192 30.9934 30.1091 28.7951 30.3448C26.6217 30.5788 23.8298 30.5788 20.2379 30.5788H20.165C18.528 30.5788 17.2769 31.1323 15.9685 31.9833C15.4383 32.3259 14.9221 32.7027 14.3625 33.1135L13.8912 33.4545C13.1548 33.9893 12.3503 34.5552 11.4418 35.0761C11.265 35.1774 11.0646 35.2305 10.8608 35.23C10.657 35.2296 10.4568 35.1755 10.2805 35.0733C10.1042 34.971 9.95778 34.8242 9.85606 34.6476C9.75434 34.471 9.70084 34.2707 9.70093 34.0669V30.0595C8.33828 29.765 7.1849 29.2906 6.20671 28.5093C5.58661 28.0117 5.06418 27.5016 4.65647 26.8924C4.24353 26.2703 3.95601 25.5737 3.81005 24.8414C3.5 23.4168 3.5 21.5053 3.5 18.7428V18.4591C3.5 15.6253 3.5 13.3527 3.79919 11.5683C4.11389 9.69565 4.78049 8.21208 6.20671 7.07111C7.59571 5.95959 9.33663 5.46972 11.5349 5.23409C13.7083 5 16.5003 5 20.0921 5ZM16.2894 16.6267C15.9811 16.6267 15.6853 16.7492 15.4673 16.9673C15.2492 17.1853 15.1267 17.4811 15.1267 17.7894C15.1267 18.0978 15.2492 18.3935 15.4673 18.6116C15.6853 18.8296 15.9811 18.9521 16.2894 18.9521H24.0406C24.3489 18.9521 24.6447 18.8296 24.8627 18.6116C25.0808 18.3935 25.2033 18.0978 25.2033 17.7894C25.2033 17.4811 25.0808 17.1853 24.8627 16.9673C24.6447 16.7492 24.3489 16.6267 24.0406 16.6267H16.2894Z" fill="#023564"/>
</svg>
