<svg width="40" height="40" viewBox="0 0 40 40" fill="none" xmlns="http://www.w3.org/2000/svg">
<path d="M8.33236 19.999H4.99902L19.999 4.99902L34.999 19.999H31.6657M8.33236 19.999V31.6657C8.33236 32.5497 8.68355 33.3976 9.30867 34.0227C9.93379 34.6478 10.7816 34.999 11.6657 34.999H28.3324C29.2164 34.999 30.0643 34.6478 30.6894 34.0227C31.3145 33.3976 31.6657 32.5497 31.6657 31.6657V19.999" fill="#023564"/>
<path d="M14.999 34.9984V24.9984C14.999 24.1143 15.3502 23.2665 15.9753 22.6414C16.6005 22.0162 17.4483 21.665 18.3324 21.665H21.6657C22.5497 21.665 23.3976 22.0162 24.0227 22.6414C24.6478 23.2665 24.999 24.1143 24.999 24.9984V34.9984" fill="white"/>
</svg>
