<svg width="40" height="40" viewBox="0 0 40 40" fill="none" xmlns="http://www.w3.org/2000/svg">
<path d="M10.001 9.33333V6.66667C10.001 5.95942 10.2644 5.28115 10.7332 4.78105C11.2021 4.28095 11.8379 4 12.501 4H17.501C18.164 4 18.7999 4.28095 19.2687 4.78105C19.7376 5.28115 20.001 5.95942 20.001 6.66667V9.33333M15.001 16V16.0133M3.75098 12C3.75098 11.2928 4.01437 10.6145 4.48321 10.1144C4.95205 9.61428 5.58794 9.33333 6.25098 9.33333H23.751C24.414 9.33333 25.0499 9.61428 25.5187 10.1144C25.9876 10.6145 26.251 11.2928 26.251 12V24C26.251 24.7072 25.9876 25.3855 25.5187 25.8856C25.0499 26.3857 24.414 26.6667 23.751 26.6667H6.25098C5.58794 26.6667 4.95205 26.3857 4.48321 25.8856C4.01437 25.3855 3.75098 24.7072 3.75098 24V12Z" stroke="#023564" stroke-width="2.5" stroke-linecap="round" stroke-linejoin="round"/>
<path d="M3.75098 17.333C7.24045 19.2086 11.0935 20.1856 15.001 20.1856C18.9084 20.1856 22.7615 19.2086 26.251 17.333" stroke="#023564" stroke-width="2.5" stroke-linecap="round" stroke-linejoin="round"/>
<rect x="13.3343" y="13.6644" width="23.3344" height="23.2852" rx="11.6426" fill="white"/>
<rect x="13.3343" y="13.6644" width="23.3344" height="23.2852" rx="11.6426" stroke="#023564" stroke-width="1.66667"/>
<mask id="path-4-inside-1_573_1569" fill="white">
<path d="M23.2915 18.3404C23.7999 18.0081 24.3942 17.8311 25.0015 17.8311C25.6089 17.8311 26.2032 18.0081 26.7115 18.3404L33.469 22.7579C33.5553 22.8143 33.6263 22.8912 33.6757 22.9817C33.725 23.0722 33.7513 23.1735 33.752 23.2765C33.7528 23.3796 33.728 23.4813 33.6799 23.5725C33.6319 23.6636 33.562 23.7415 33.4765 23.7992L26.754 28.3492C26.2369 28.6993 25.6267 28.8864 25.0022 28.8864C24.3776 28.8864 23.7675 28.6993 23.2503 28.3492L17.5015 24.4604V28.4067C17.5015 28.5724 17.4357 28.7314 17.3185 28.8486C17.2013 28.9658 17.0423 29.0317 16.8765 29.0317C16.7108 29.0317 16.5518 28.9658 16.4346 28.8486C16.3174 28.7314 16.2515 28.5724 16.2515 28.4067V23.4067L16.254 23.3442C16.2427 23.2304 16.2629 23.1157 16.3122 23.0125C16.3616 22.9094 16.4383 22.8217 16.534 22.7592L23.2915 18.3404ZM18.7515 29.6554V26.8142L22.2622 29.0317C22.9862 29.5218 24.1273 30.1375 25.0015 30.1375C25.8758 30.1375 26.73 29.8755 27.454 29.3854L31.2515 26.8142V29.6567C31.2516 29.8051 31.1989 29.9486 31.1028 30.0617L31.1015 30.0642L31.099 30.0667L31.0915 30.0754L31.0665 30.1029L30.9815 30.1954C30.8788 30.3027 30.7729 30.4069 30.664 30.5079C30.389 30.7617 29.9853 31.0967 29.4653 31.4329C28.4278 32.1029 26.904 32.7829 25.0028 32.7829C23.099 32.7829 21.5765 32.1029 20.5378 31.4329C20.001 31.1644 19.7111 30.8503 19.339 30.5079C19.1988 30.3791 19.0645 30.244 18.9365 30.1029L18.9115 30.0754L18.904 30.0667L18.9015 30.0642L19.3765 29.6579C18.9003 30.0617 18.9015 30.0642 18.9015 30.0642C18.8047 29.951 18.7515 29.8044 18.7515 29.6554Z"/>
</mask>
<path d="M20.001 29.4977H20.8343V28.6644H20.001V29.4977ZM20.001 30.3311H19.1676V31.1644H20.001V30.3311ZM31.9033 29.8302L30.8791 26.2883L29.2781 26.7513L30.3023 30.2932L31.9033 29.8302ZM19.1676 30.3311H20.001V28.6644H19.1676V30.3311ZM19.1676 29.4977V30.3311H20.8343V29.4977H19.1676ZM20.001 31.1644H20.8343V29.4977H20.001V31.1644ZM23.2915 18.3404L22.3795 16.9454L22.3794 16.9455L23.2915 18.3404ZM26.7115 18.3404L25.7995 19.7354L25.7996 19.7355L26.7115 18.3404ZM33.469 22.7579L34.3811 21.3629L34.381 21.3629L33.469 22.7579ZM33.4765 23.7992L32.5445 22.4175L32.5424 22.4189L33.4765 23.7992ZM26.754 28.3492L25.8199 26.9689L25.8197 26.969L26.754 28.3492ZM25.0022 28.8864V30.5531V28.8864ZM23.2503 28.3492L24.1846 26.969L24.1841 26.9687L23.2503 28.3492ZM17.5015 24.4604L18.4354 23.0799L15.8349 21.3208V24.4604H17.5015ZM17.5015 28.4067H19.1682H17.5015ZM16.2515 28.4067H14.5849H16.2515ZM16.2515 23.4067L14.5862 23.3401L14.5849 23.3734V23.4067H16.2515ZM16.254 23.3442L17.9194 23.4108L17.924 23.2948L17.9125 23.1793L16.254 23.3442ZM16.534 22.7592L17.4459 24.1543L17.4462 24.1541L16.534 22.7592ZM18.7515 29.6554L20.4182 29.6556V29.6554H18.7515ZM18.7515 26.8142L19.6416 25.4051L17.0849 23.7901V26.8142H18.7515ZM22.2622 29.0317L23.1965 27.6515L23.1746 27.6367L23.1523 27.6226L22.2622 29.0317ZM25.0015 30.1375V28.4708V30.1375ZM27.454 29.3854L28.3883 30.7656L28.3885 30.7655L27.454 29.3854ZM31.2515 26.8142H32.9182V23.6729L30.3171 25.4341L31.2515 26.8142ZM31.2515 29.6567H29.5849L29.5849 29.6574L31.2515 29.6567ZM31.1028 30.0617L29.8328 28.9824L29.7021 29.1362L29.6119 29.3167L31.1028 30.0617ZM31.1015 30.0642L32.2801 31.2427L32.4715 31.0513L32.5924 30.8092L31.1015 30.0642ZM31.099 30.0667L29.9205 28.8882L29.8753 28.9334L29.8337 28.982L31.099 30.0667ZM31.0915 30.0754L32.3248 31.1965L32.3411 31.1786L32.3569 31.1601L31.0915 30.0754ZM31.0665 30.1029L32.2938 31.2307L32.2998 31.224L31.0665 30.1029ZM30.9815 30.1954L32.1854 31.348L32.1972 31.3357L32.2087 31.3231L30.9815 30.1954ZM30.664 30.5079L31.7943 31.7328L31.7974 31.7299L30.664 30.5079ZM29.4653 31.4329L30.3695 32.833L30.3703 32.8325L29.4653 31.4329ZM20.5378 31.4329L21.4412 30.0323L21.3648 29.983L21.2834 29.9424L20.5378 31.4329ZM19.339 30.5079L20.4676 29.2815L20.4663 29.2803L19.339 30.5079ZM18.9365 30.1029L20.1711 28.9833L20.1698 28.9818L18.9365 30.1029ZM18.9115 30.0754L17.6461 31.1601L17.6619 31.1785L17.6783 31.1965L18.9115 30.0754ZM18.904 30.0667L20.1695 28.982L20.1278 28.9334L20.0826 28.8882L18.904 30.0667ZM18.9015 30.0642L17.6349 31.1474L17.6771 31.1968L17.723 31.2427L18.9015 30.0642ZM19.3765 29.6579L20.4598 30.9245L18.2988 28.3866L19.3765 29.6579ZM24.2035 19.7354C24.4408 19.5803 24.7181 19.4977 25.0015 19.4977V16.1644C24.0702 16.1644 23.1591 16.4358 22.3795 16.9454L24.2035 19.7354ZM25.0015 19.4977C25.285 19.4977 25.5623 19.5803 25.7995 19.7354L27.6235 16.9454C26.844 16.4358 25.9329 16.1644 25.0015 16.1644V19.4977ZM25.7996 19.7355L32.5571 24.153L34.381 21.3629L27.6235 16.9454L25.7996 19.7355ZM32.557 24.1529C32.4132 24.0589 32.2949 23.9308 32.2126 23.78L35.1387 22.1834C34.9577 21.8516 34.6974 21.5698 34.3811 21.3629L32.557 24.1529ZM32.2126 23.78C32.1303 23.6291 32.0866 23.4603 32.0854 23.2885L35.4186 23.2645C35.4159 22.8866 35.3198 22.5152 35.1387 22.1834L32.2126 23.78ZM32.0854 23.2885C32.0842 23.1168 32.1254 22.9473 32.2055 22.7953L35.1543 24.3496C35.3306 24.0152 35.4214 23.6425 35.4186 23.2645L32.0854 23.2885ZM32.2055 22.7953C32.2856 22.6434 32.4021 22.5136 32.5445 22.4175L34.4086 25.1809C34.7219 24.9695 34.9781 24.6839 35.1543 24.3496L32.2055 22.7953ZM32.5424 22.4189L25.8199 26.9689L27.6882 29.7294L34.4107 25.1794L32.5424 22.4189ZM25.8197 26.969C25.5784 27.1324 25.2936 27.2197 25.0022 27.2197V30.5531C25.9598 30.5531 26.8954 30.2661 27.6884 29.7293L25.8197 26.969ZM25.0022 27.2197C24.7107 27.2197 24.426 27.1324 24.1846 26.969L22.316 29.7293C23.1089 30.2661 24.0446 30.5531 25.0022 30.5531V27.2197ZM24.1841 26.9687L18.4354 23.0799L16.5677 25.8409L22.3165 29.7297L24.1841 26.9687ZM15.8349 24.4604V28.4067H19.1682V24.4604H15.8349ZM15.8349 28.4067C15.8349 28.1304 15.9446 27.8655 16.14 27.6701L18.497 30.0271C18.9268 29.5974 19.1682 29.0145 19.1682 28.4067H15.8349ZM16.14 27.6701C16.3353 27.4748 16.6003 27.365 16.8765 27.365V30.6983C17.4843 30.6983 18.0672 30.4569 18.497 30.0271L16.14 27.6701ZM16.8765 27.365C17.1528 27.365 17.4178 27.4748 17.6131 27.6701L15.2561 30.0271C15.6859 30.4569 16.2688 30.6983 16.8765 30.6983V27.365ZM17.6131 27.6701C17.8085 27.8655 17.9182 28.1304 17.9182 28.4067H14.5849C14.5849 29.0145 14.8263 29.5974 15.2561 30.0271L17.6131 27.6701ZM17.9182 28.4067V23.4067H14.5849V28.4067H17.9182ZM17.9169 23.4733L17.9194 23.4108L14.5887 23.2776L14.5862 23.3401L17.9169 23.4733ZM17.9125 23.1793C17.9314 23.3689 17.8978 23.5601 17.8156 23.7321L14.8089 22.293C14.6279 22.6712 14.5541 23.0918 14.5956 23.5091L17.9125 23.1793ZM17.8156 23.7321C17.7333 23.904 17.6054 24.05 17.4459 24.1543L15.6222 21.3641C15.2712 21.5935 14.9899 21.9148 14.8089 22.293L17.8156 23.7321ZM17.4462 24.1541L24.2037 19.7353L22.3794 16.9455L15.6219 21.3643L17.4462 24.1541ZM20.4182 29.6554V26.8142H17.0849V29.6554H20.4182ZM17.8615 28.2233L21.3722 30.4408L23.1523 27.6226L19.6416 25.4051L17.8615 28.2233ZM21.328 30.4119C21.7496 30.6973 22.3029 31.0271 22.8997 31.2918C23.4662 31.5432 24.2214 31.8041 25.0015 31.8041V28.4708C24.9074 28.4708 24.6549 28.4239 24.2514 28.2449C23.8781 28.0792 23.4989 27.8562 23.1965 27.6515L21.328 30.4119ZM25.0015 31.8041C26.2089 31.8041 27.3885 31.4424 28.3883 30.7656L26.5198 28.0052C26.0716 28.3086 25.5428 28.4708 25.0015 28.4708V31.8041ZM28.3885 30.7655L32.186 28.1942L30.3171 25.4341L26.5196 28.0053L28.3885 30.7655ZM29.5849 26.8142V29.6567H32.9182V26.8142H29.5849ZM29.5849 29.6574C29.5848 29.4101 29.6726 29.1708 29.8328 28.9824L32.3728 31.141C32.7251 30.7264 32.9184 30.2 32.9182 29.656L29.5849 29.6574ZM29.6119 29.3167L29.6106 29.3192L32.5924 30.8092L32.5937 30.8067L29.6119 29.3167ZM29.923 28.8857L29.9205 28.8882L32.2776 31.2452L32.2801 31.2427L29.923 28.8857ZM29.8337 28.982L29.8262 28.9907L32.3569 31.1601L32.3644 31.1514L29.8337 28.982ZM29.8583 28.9543L29.8333 28.9818L32.2998 31.224L32.3248 31.1965L29.8583 28.9543ZM29.8393 28.9752L29.7543 29.0677L32.2087 31.3231L32.2937 31.2306L29.8393 28.9752ZM29.7777 29.0428C29.6978 29.1263 29.6154 29.2073 29.5307 29.2859L31.7974 31.7299C31.9305 31.6065 32.0599 31.4791 32.1854 31.348L29.7777 29.0428ZM29.5338 29.283C29.3174 29.4828 28.9883 29.7566 28.5603 30.0334L30.3703 32.8325C30.9823 32.4368 31.4607 32.0406 31.7943 31.7328L29.5338 29.283ZM28.5611 30.0328C27.7095 30.5828 26.4964 31.1163 25.0028 31.1163V34.4496C27.3116 34.4496 29.1461 33.623 30.3695 32.833L28.5611 30.0328ZM25.0028 31.1163C23.5067 31.1163 22.2948 30.5829 21.4412 30.0323L19.6344 32.8335C20.8583 33.6229 22.6914 34.4496 25.0028 34.4496V31.1163ZM21.2834 29.9424C21.009 29.8051 20.9218 29.6994 20.4676 29.2815L18.2105 31.7344C18.5005 32.0012 18.993 32.5237 19.7922 32.9235L21.2834 29.9424ZM20.4663 29.2803C20.3634 29.1858 20.2649 29.0867 20.1711 28.9833L17.702 31.2226C17.864 31.4012 18.0341 31.5724 18.2118 31.7356L20.4663 29.2803ZM20.1698 28.9818L20.1448 28.9543L17.6783 31.1965L17.7033 31.224L20.1698 28.9818ZM20.177 28.9908L20.1695 28.982L17.6386 31.1513L17.6461 31.1601L20.177 28.9908ZM20.0826 28.8882L20.0801 28.8857L17.723 31.2427L17.7255 31.2452L20.0826 28.8882ZM19.9848 31.3308L20.4598 30.9245L18.2933 28.3913L17.8183 28.7976L19.9848 31.3308ZM18.2988 28.3866C18.0598 28.5892 17.9366 28.6946 17.8717 28.7506C17.8404 28.7775 17.8169 28.7981 17.7984 28.8145C17.7915 28.8207 17.7725 28.8377 17.7505 28.8588C17.7435 28.8655 17.7112 28.8962 17.673 28.938C17.6598 28.9523 17.605 29.0119 17.545 29.0959C17.5202 29.1306 17.4452 29.2369 17.378 29.3884C17.3446 29.4637 17.2845 29.6131 17.254 29.8123C17.2381 29.9165 17.2266 30.0577 17.2425 30.2235C17.2536 30.3135 17.2805 30.4515 17.2928 30.4998C17.3441 30.6576 17.4109 30.8096 18.9015 30.0642C20.3922 29.3188 20.459 29.4707 20.5103 29.6285C20.5226 29.6768 20.5495 29.8148 20.5606 29.9049C20.5765 30.0706 20.565 30.2118 20.5491 30.3161C20.5186 30.5153 20.4585 30.6647 20.4251 30.7399C20.3578 30.8915 20.2829 30.9977 20.2581 31.0324C20.1982 31.1164 20.1434 31.1759 20.1303 31.1901C20.0923 31.2316 20.0605 31.2619 20.0544 31.2678C20.0425 31.2791 20.0333 31.2876 20.029 31.2915C20.0241 31.2959 20.0206 31.2991 20.0191 31.3004C20.0154 31.3038 20.0212 31.2985 20.0492 31.2744C20.1028 31.2282 20.217 31.1304 20.4543 30.9292L18.2988 28.3866ZM20.1682 28.981C20.3341 29.1749 20.4182 29.4142 20.4182 29.6556L17.0849 29.6553C17.0848 30.1945 17.2754 30.727 17.6349 31.1474L20.1682 28.981Z" fill="#023564" mask="url(#path-4-inside-1_573_1569)"/>
</svg>
