<svg width="300" height="80" viewBox="0 0 300 80" fill="none" xmlns="http://www.w3.org/2000/svg">
<path d="M33.8317 75.8036C28.0994 75.8036 22.8224 74.4643 18.0007 71.7856C13.1791 69.0533 9.37538 65.3032 6.58955 60.5351C3.80373 55.7135 2.41081 50.3561 2.41081 44.463C2.41081 38.2485 3.80373 32.7572 6.58955 27.9892C9.37538 23.2211 13.1255 19.5513 17.84 16.9798C22.5545 14.3547 27.7243 13.0421 33.3496 13.0421C38.7605 13.0421 43.3143 14.0065 47.0108 15.9351C50.761 17.8102 54.2968 20.4621 57.6184 23.8908C57.7256 23.9979 57.8863 24.0515 58.1006 24.0515C58.422 24.0515 58.9845 23.8104 59.7881 23.3283L60.7525 24.5337L49.6627 33.2929L48.6984 32.0875C49.0198 31.8732 49.2609 31.6054 49.4216 31.2839C49.6359 30.9089 49.6359 30.6411 49.4216 30.4803C47.1716 28.2838 44.8143 26.623 42.3499 25.498C39.9391 24.3194 36.9926 23.7301 33.5103 23.7301C29.8673 23.7301 26.5189 24.6408 23.4652 26.4623C20.4115 28.2302 18.0007 30.6946 16.2328 33.8555C14.4649 37.0163 13.5809 40.5522 13.5809 44.463C13.5809 48.2132 14.5184 51.6419 16.3935 54.7492C18.2686 57.8029 20.7598 60.2137 23.867 61.9816C26.9743 63.7495 30.2959 64.6335 33.8317 64.6335C37.1533 64.6335 39.9927 64.071 42.3499 62.9459C44.7072 61.7673 46.9305 60.0262 49.0198 57.7225L49.1806 57.4011C49.1806 57.1332 49.0466 56.8385 48.7788 56.5171C48.5645 56.1421 48.3234 55.8742 48.0555 55.7135L49.1002 54.5885L61.0739 64.6335L60.1096 65.8389C59.7881 65.571 59.3863 65.33 58.9042 65.1157C58.422 64.9014 58.1006 64.9014 57.9399 65.1157C54.5647 68.7587 51.0289 71.4641 47.3323 73.2321C43.6357 74.9464 39.1355 75.8036 33.8317 75.8036Z" fill="url(#paint0_linear_490_2295)"/>
<path d="M34.0192 57.7151C31.3762 57.7151 29.0369 57.1616 27.0011 56.0544C25.001 54.9115 23.4295 53.3578 22.2866 51.3935C21.1794 49.4291 20.6258 47.2147 20.6258 44.7503C20.6258 42.3217 21.1794 40.1073 22.2866 38.1072C23.4295 36.1071 25.0188 34.5356 27.0546 33.3927C29.0904 32.2141 31.412 31.6248 34.0192 31.6248C36.5193 31.6248 38.7873 32.1963 40.8231 33.3392C42.8589 34.4463 44.4661 36 45.6447 38.0001C46.8233 39.9644 47.4126 42.2145 47.4126 44.7503C47.4126 46.9647 46.8769 49.0719 45.8054 51.072C44.7696 53.0364 43.2339 54.6436 41.1981 55.8936C39.1623 57.108 36.7693 57.7151 34.0192 57.7151ZM34.0192 51.5542C36.1264 51.5542 37.8229 50.947 39.1087 49.7327C40.4302 48.4826 41.0909 46.8754 41.0909 44.9111C41.0909 42.8753 40.4302 41.1966 39.1087 39.8751C37.8229 38.5537 36.1264 37.8929 34.0192 37.8929C32.0548 37.8929 30.4119 38.5537 29.0904 39.8751C27.769 41.1609 27.1082 42.786 27.1082 44.7503C27.1082 46.8218 27.769 48.4826 29.0904 49.7327C30.4119 50.947 32.0548 51.5542 34.0192 51.5542ZM79.6807 55.4651C79.6807 55.6436 79.8057 55.7865 80.0557 55.8936C80.3414 56.0008 80.6271 56.0544 80.9129 56.0544V57.0723H71.4839V56.0544C71.7696 56.0544 72.0375 56.0008 72.2875 55.8936C72.5732 55.7865 72.7161 55.6436 72.7161 55.4651V44.3217C72.7161 42.5002 72.2696 40.9466 71.3768 39.6608C70.4839 38.3394 69.1445 37.6786 67.3587 37.6786C65.5372 37.6786 64.055 38.2858 62.9121 39.5001C61.8049 40.7145 61.2513 42.4645 61.2513 44.7503V55.4651C61.2513 55.6436 61.3763 55.7865 61.6264 55.8936C61.9121 56.0008 62.1978 56.0544 62.4835 56.0544V57.0723H53.1082V56.0544C53.3939 56.0544 53.6617 56.0008 53.9118 55.8936C54.1975 55.7865 54.3403 55.6436 54.3403 55.4651V34.0356C54.3403 33.857 54.1975 33.7142 53.9118 33.607C53.6617 33.4999 53.4117 33.4463 53.1617 33.4463V32.4284H61.2513V34.6249C62.1799 33.7677 63.2693 33.107 64.5193 32.6427C65.8051 32.1427 67.1087 31.8927 68.4302 31.8927C70.716 31.8927 72.6982 32.3748 74.3769 33.3392C76.0912 34.3035 77.3949 35.6071 78.2877 37.25C79.2164 38.8572 79.6807 40.6609 79.6807 42.661V55.4651ZM113.771 55.4651C113.771 55.6436 113.896 55.7865 114.146 55.8936C114.432 56.0008 114.718 56.0544 115.003 56.0544V57.0723H105.574V56.0544C105.86 56.0544 106.128 56.0008 106.378 55.8936C106.664 55.7865 106.806 55.6436 106.806 55.4651V44.3217C106.806 42.5002 106.36 40.9466 105.467 39.6608C104.574 38.3394 103.235 37.6786 101.449 37.6786C99.6276 37.6786 98.1454 38.2858 97.0025 39.5001C95.8953 40.7145 95.3417 42.4645 95.3417 44.7503V55.4651C95.3417 55.6436 95.4667 55.7865 95.7167 55.8936C96.0025 56.0008 96.2882 56.0544 96.5739 56.0544V57.0723H87.1985V56.0544C87.4843 56.0544 87.7521 56.0008 88.0021 55.8936C88.2879 55.7865 88.4307 55.6436 88.4307 55.4651V34.0356C88.4307 33.857 88.2879 33.7142 88.0021 33.607C87.7521 33.4999 87.5021 33.4463 87.2521 33.4463V32.4284H95.3417V34.6249C96.2703 33.7677 97.3597 33.107 98.6097 32.6427C99.8955 32.1427 101.199 31.8927 102.521 31.8927C104.806 31.8927 106.789 32.3748 108.467 33.3392C110.182 34.3035 111.485 35.6071 112.378 37.25C113.307 38.8572 113.771 40.6609 113.771 42.661V55.4651ZM133.772 31.3034C136.522 31.3034 138.897 31.9105 140.897 33.1249C142.897 34.3035 144.415 35.9107 145.451 37.9465C146.486 39.9823 147.004 42.2324 147.004 44.6968C147.004 45.4468 146.951 46.1968 146.844 46.9469H127.236C127.378 48.6612 128.128 50.0006 129.486 50.9649C130.843 51.9292 132.468 52.4114 134.361 52.4114C135.647 52.4114 136.718 52.2328 137.575 51.8756C138.468 51.5185 139.254 50.9827 139.933 50.2684C140.004 50.1256 140.04 50.0363 140.04 50.0006C140.04 49.8577 139.986 49.7148 139.879 49.572C139.772 49.3934 139.665 49.2684 139.558 49.1969L140.2 48.3933L146.147 53.0542L145.558 53.8578C145.022 53.5364 144.647 53.5007 144.433 53.7507C141.933 56.7508 138.575 58.2509 134.361 58.2509C131.646 58.2509 129.254 57.6616 127.182 56.483C125.111 55.2686 123.503 53.6614 122.36 51.6613C121.253 49.6255 120.7 47.3754 120.7 44.9111C120.7 42.3038 121.253 39.9644 122.36 37.8929C123.468 35.8214 125.003 34.2142 126.968 33.0713C128.968 31.8927 131.236 31.3034 133.772 31.3034ZM140.575 41.9645C140.433 40.5002 139.683 39.268 138.325 38.2679C137.004 37.2322 135.504 36.7143 133.825 36.7143C132.147 36.7143 130.7 37.2322 129.486 38.2679C128.271 39.268 127.539 40.5002 127.289 41.9645H140.575ZM164.612 58.1973C162.326 58.1973 160.201 57.6259 158.237 56.483C156.272 55.3401 154.701 53.7864 153.522 51.8221C152.379 49.8577 151.808 47.7147 151.808 45.3932C151.808 42.6431 152.379 40.2323 153.522 38.1608C154.701 36.0536 156.272 34.4463 158.237 33.3392C160.201 32.1963 162.362 31.6248 164.719 31.6248C166.398 31.6248 167.826 31.8212 169.005 32.2141C170.219 32.607 171.184 33.0891 171.898 33.6606C172.648 34.1963 173.577 34.9642 174.684 35.9643C174.755 36.0357 174.845 36.0714 174.952 36.0714C175.095 36.0714 175.255 36.0178 175.434 35.9107C175.648 35.8035 175.809 35.6964 175.916 35.5893L176.612 36.3393L170.827 41.6966L170.13 40.9466C170.309 40.8037 170.452 40.6073 170.559 40.3573C170.702 40.0716 170.719 39.8573 170.612 39.7144C169.326 38.1429 167.559 37.3572 165.308 37.3572C163.273 37.3572 161.558 38.0358 160.165 39.393C158.808 40.7502 158.13 42.5181 158.13 44.6968C158.13 46.9469 158.79 48.7505 160.112 50.1077C161.433 51.4649 163.165 52.1435 165.308 52.1435C166.38 52.1435 167.255 52.0185 167.934 51.7685C168.612 51.4828 169.38 50.9649 170.237 50.2148C170.309 50.1434 170.344 50.0541 170.344 49.947C170.344 49.7327 170.219 49.5005 169.969 49.2505L170.612 48.4469L176.398 53.2685L175.755 54.0186C175.184 53.6971 174.791 53.6436 174.577 53.8578C173.255 55.3222 171.862 56.4115 170.398 57.1258C168.969 57.8402 167.041 58.1973 164.612 58.1973ZM195.561 31.3569V39.5001H194.543C194.543 39.2501 194.49 39.018 194.383 38.8037C194.275 38.5537 194.133 38.4287 193.954 38.4287H190.472V55.4651C190.472 55.6436 190.597 55.7865 190.847 55.8936C191.097 56.0008 191.347 56.0544 191.597 56.0544V57.0723H182.864V56.0544C183.114 56.0544 183.364 56.0008 183.614 55.8936C183.864 55.7865 183.989 55.6436 183.989 55.4651V38.4287H181.418C181.239 38.4287 181.096 38.5537 180.989 38.8037C180.882 39.018 180.828 39.2501 180.828 39.5001H179.811V31.3569H180.828C180.828 31.6069 180.882 31.857 180.989 32.107C181.096 32.3213 181.239 32.4284 181.418 32.4284H183.989V26.1603C183.989 25.9817 183.864 25.8389 183.614 25.7317C183.364 25.6246 183.114 25.571 182.864 25.571V24.5531H191.597V25.571C191.347 25.571 191.097 25.6246 190.847 25.7317C190.597 25.8389 190.472 25.9817 190.472 26.1603V32.4284H193.954C194.133 32.4284 194.275 32.3213 194.383 32.107C194.49 31.857 194.543 31.6069 194.543 31.3569H195.561ZM205.846 27.9282C204.704 27.9282 203.721 27.5354 202.9 26.7496C202.114 25.9639 201.721 24.9817 201.721 23.8031C201.721 22.6959 202.114 21.7494 202.9 20.9637C203.721 20.1422 204.704 19.7315 205.846 19.7315C206.989 19.7315 207.954 20.1422 208.739 20.9637C209.525 21.7494 209.918 22.6959 209.918 23.8031C209.918 24.9817 209.525 25.9639 208.739 26.7496C207.954 27.5354 206.989 27.9282 205.846 27.9282ZM202.364 34.0356C202.364 33.857 202.221 33.7142 201.936 33.607C201.686 33.4999 201.436 33.4463 201.186 33.4463V32.4284H210.4V33.4463C210.15 33.4463 209.882 33.4999 209.597 33.607C209.347 33.7142 209.222 33.857 209.222 34.0356V55.4651C209.222 55.6436 209.347 55.7865 209.597 55.8936C209.882 56.0008 210.15 56.0544 210.4 56.0544V57.0723H201.186V56.0544C201.436 56.0544 201.686 56.0008 201.936 55.8936C202.221 55.7865 202.364 55.6436 202.364 55.4651V34.0356ZM229.633 58.1973C227.347 58.1973 225.222 57.6259 223.257 56.483C221.293 55.3401 219.722 53.7864 218.543 51.8221C217.4 49.8577 216.829 47.7147 216.829 45.3932C216.829 42.6431 217.4 40.2323 218.543 38.1608C219.722 36.0536 221.293 34.4463 223.257 33.3392C225.222 32.1963 227.383 31.6248 229.74 31.6248C231.419 31.6248 232.847 31.8212 234.026 32.2141C235.24 32.607 236.204 33.0891 236.919 33.6606C237.669 34.1963 238.597 34.9642 239.705 35.9643C239.776 36.0357 239.865 36.0714 239.972 36.0714C240.115 36.0714 240.276 36.0178 240.455 35.9107C240.669 35.8035 240.83 35.6964 240.937 35.5893L241.633 36.3393L235.847 41.6966L235.151 40.9466C235.329 40.8037 235.472 40.6073 235.579 40.3573C235.722 40.0716 235.74 39.8573 235.633 39.7144C234.347 38.1429 232.579 37.3572 230.329 37.3572C228.293 37.3572 226.579 38.0358 225.186 39.393C223.829 40.7502 223.15 42.5181 223.15 44.6968C223.15 46.9469 223.811 48.7505 225.133 50.1077C226.454 51.4649 228.186 52.1435 230.329 52.1435C231.401 52.1435 232.276 52.0185 232.954 51.7685C233.633 51.4828 234.401 50.9649 235.258 50.2148C235.329 50.1434 235.365 50.0541 235.365 49.947C235.365 49.7327 235.24 49.5005 234.99 49.2505L235.633 48.4469L241.419 53.2685L240.776 54.0186C240.205 53.6971 239.812 53.6436 239.597 53.8578C238.276 55.3222 236.883 56.4115 235.419 57.1258C233.99 57.8402 232.061 58.1973 229.633 58.1973ZM270.332 55.4651C270.332 55.6436 270.457 55.7865 270.707 55.8936C270.993 56.0008 271.261 56.0544 271.511 56.0544V57.0723H264.868V55.09C262.975 56.733 260.778 57.5544 258.278 57.5544C254.528 57.5544 251.778 56.483 250.028 54.34C248.278 52.1614 247.403 49.447 247.403 46.1968V34.0356C247.403 33.857 247.26 33.7142 246.974 33.607C246.724 33.4999 246.474 33.4463 246.224 33.4463V32.4284H255.332V33.4463C255.082 33.4463 254.814 33.4999 254.528 33.607C254.278 33.7142 254.153 33.857 254.153 34.0356V45.7682C254.153 47.304 254.546 48.6076 255.332 49.6791C256.118 50.7149 257.332 51.2327 258.975 51.2327C260.546 51.2327 261.725 50.7506 262.511 49.7863C263.296 48.8219 263.689 47.5897 263.689 46.0897V34.0356C263.689 33.857 263.546 33.7142 263.261 33.607C263.011 33.4999 262.761 33.4463 262.511 33.4463V32.4284H271.511V33.4463C271.261 33.4463 270.993 33.4999 270.707 33.607C270.457 33.7142 270.332 33.857 270.332 34.0356V55.4651ZM288.197 57.8759C286.375 57.8759 284.607 57.5009 282.893 56.7508C281.214 56.0008 279.518 54.9293 277.803 53.5364C277.732 53.465 277.643 53.4293 277.536 53.4293C277.25 53.4293 276.946 53.59 276.625 53.9114L275.875 53.2685L281.232 47.1611L281.982 47.8576C281.839 48.0362 281.714 48.2505 281.607 48.5005C281.536 48.7505 281.571 48.9469 281.714 49.0898C282.893 50.1613 283.982 50.9649 284.982 51.5006C286.018 52.0006 287.089 52.2506 288.197 52.2506C290.947 52.2506 292.322 51.3399 292.322 49.5184C292.322 48.6969 291.893 48.0719 291.036 47.6433C290.215 47.179 288.822 46.679 286.857 46.1433C284.321 45.4647 282.482 44.5896 281.339 43.5181C280.196 42.411 279.625 40.9109 279.625 39.018C279.625 36.7679 280.357 34.9464 281.821 33.5535C283.286 32.1248 285.286 31.4105 287.822 31.4105C289.107 31.4105 290.268 31.6069 291.304 31.9998C292.34 32.3927 293.59 33.0891 295.054 34.0892C295.09 34.1249 295.161 34.1428 295.268 34.1428C295.447 34.1428 295.626 34.0892 295.804 33.982C295.983 33.8749 296.108 33.7677 296.179 33.6606L296.983 34.3571L292.161 39.8216L291.411 39.1787C291.554 39.0358 291.643 38.8572 291.679 38.6429C291.75 38.3929 291.715 38.1965 291.572 38.0536C290.929 37.5536 290.304 37.1786 289.697 36.9286C289.125 36.6786 288.482 36.5536 287.768 36.5536C287.018 36.5536 286.429 36.6964 286 36.9822C285.572 37.2679 285.357 37.6965 285.357 38.2679C285.357 38.7322 285.482 39.1073 285.732 39.393C285.982 39.6787 286.429 39.9644 287.072 40.2502C287.75 40.5359 288.768 40.893 290.125 41.3216C292.625 42.0717 294.59 43.1253 296.018 44.4825C297.447 45.804 298.161 47.4469 298.161 49.4112C298.161 52.3042 297.251 54.4472 295.429 55.8401C293.608 57.1973 291.197 57.8759 288.197 57.8759Z" fill="url(#paint1_linear_490_2295)"/>
<defs>
<linearGradient id="paint0_linear_490_2295" x1="31" y1="5.94459e-06" x2="59.0514" y2="68.8929" gradientUnits="userSpaceOnUse">
<stop stop-color="#023564"/>
<stop offset="1" stop-color="#2A97FC"/>
</linearGradient>
<linearGradient id="paint1_linear_490_2295" x1="18.7507" y1="34.0723" x2="299.751" y2="34.0723" gradientUnits="userSpaceOnUse">
<stop stop-color="#023564"/>
<stop offset="1" stop-color="#2A97FC"/>
</linearGradient>
</defs>
</svg>
