<svg width="83" height="89" viewBox="0 0 83 89" fill="none" xmlns="http://www.w3.org/2000/svg">
<g clip-path="url(#clip0_486_4034)">
<path d="M22.2898 82.6952C15.5496 78.9139 10.2303 73.6705 6.33698 66.9676C2.44241 60.266 0.495117 52.7948 0.495117 44.5552C0.495117 35.8677 2.44112 28.1918 6.33698 21.5249C10.2303 14.8607 15.4737 9.71122 22.0646 6.07791C28.6542 2.44589 35.8822 0.629883 43.746 0.629883C51.3099 0.629883 57.6936 1.96068 62.8997 4.61841C68.1045 7.27743 73.0274 11.0047 77.6723 15.7963C77.8216 15.9469 78.0468 16.0216 78.3467 16.0216C78.7959 16.0216 79.5823 15.6844 80.7058 15.0099L82.0534 16.6947L66.551 28.9395L65.2035 27.2548C65.6526 26.9562 66.0079 26.5637 66.2704 26.0746C66.5317 25.5881 66.5124 25.2316 66.2138 25.0076C63.0683 21.9381 59.7915 19.5982 56.3834 17.9869C52.9741 16.3768 48.8375 15.5711 43.9699 15.5711C38.8758 15.5711 34.1962 16.826 29.9271 19.3344C25.658 21.8441 22.2885 25.3075 19.8161 29.7259C17.345 34.1456 16.1095 39.0891 16.1095 44.5552C16.1095 49.7986 17.4184 54.5722 20.0413 58.8786C22.6618 63.1863 26.1445 66.5738 30.4895 69.0449C34.832 71.516 39.4769 72.7516 44.4191 72.7516C49.0615 72.7516 53.0307 71.9472 56.3268 70.3358C59.6216 68.7257 62.7298 66.3112 65.6514 63.0898L65.8766 62.6406C65.8766 62.2661 65.708 61.8362 65.3708 61.3484C65.0336 60.8619 64.6771 60.5054 64.3038 60.2815L65.7646 58.7087L82.5038 72.7516L81.1563 74.4363C80.7071 74.0618 80.1447 73.7259 79.4716 73.4247C78.7972 73.1261 78.348 73.1261 78.124 73.4247C73.4058 78.5188 68.4623 82.2821 63.2948 84.7146C58.1273 87.1497 51.8363 88.3659 44.4217 88.3659C36.406 88.3685 29.03 86.4778 22.2898 82.6952Z" fill="url(#paint0_linear_486_4034)"/>
<path d="M33.1397 62.6409C29.7625 60.6666 27.1408 58.0449 25.2772 54.7784C23.4123 51.5119 22.4805 48.051 22.4805 44.3959C22.4805 40.7046 23.3659 37.1511 25.1382 33.7366C26.9104 30.3221 29.4755 27.5447 32.8347 25.403C36.1938 23.2627 40.1245 22.1919 44.6291 22.1919C49.0217 22.1919 52.8803 23.2074 56.2021 25.237C59.524 27.268 62.0723 29.972 63.8433 33.3492C65.6155 36.7277 66.501 40.4099 66.501 44.3959C66.501 47.9404 65.6232 51.3459 63.8703 54.6124C62.1161 57.8789 59.5793 60.5289 56.2562 62.5585C52.9343 64.5895 49.0578 65.6036 44.6278 65.6036C40.3471 65.6036 36.5182 64.6165 33.1397 62.6409ZM52.1338 56.5506C54.3295 55.3871 56.0464 53.7462 57.2832 51.6226C58.5201 49.5002 59.1379 47.0909 59.1379 44.3959C59.1379 41.5541 58.5471 39.007 57.3656 36.7547C56.1841 34.5037 54.4865 32.7224 52.2715 31.4109C50.0565 30.1007 47.4348 29.4456 44.409 29.4456C41.6406 29.4456 39.1759 30.102 37.0163 31.4109C34.8566 32.7211 33.168 34.5217 31.9492 36.8101C30.7304 39.0997 30.1216 41.6274 30.1216 44.3959C30.1216 47.275 30.8321 49.7667 32.2529 51.871C33.6738 53.9753 35.5014 55.5725 37.7344 56.6613C39.9674 57.7501 42.2841 58.2946 44.6844 58.2946C47.4541 58.2946 49.9368 57.7128 52.1338 56.5506Z" fill="url(#paint1_linear_486_4034)"/>
</g>
<defs>
<linearGradient id="paint0_linear_486_4034" x1="65.4009" y1="-1.97158" x2="28.42" y2="83.9197" gradientUnits="userSpaceOnUse">
<stop stop-color="#2A4078"/>
<stop offset="0.5363" stop-color="#2B4D9D"/>
<stop offset="1" stop-color="#36519F"/>
</linearGradient>
<linearGradient id="paint1_linear_486_4034" x1="22.4808" y1="43.8972" x2="66.5031" y2="43.8972" gradientUnits="userSpaceOnUse">
<stop stop-color="#2A4078"/>
<stop offset="0.5363" stop-color="#2B4D9D"/>
<stop offset="1" stop-color="#36519F"/>
</linearGradient>
<clipPath id="clip0_486_4034">
<rect width="83" height="89" fill="white"/>
</clipPath>
</defs>
</svg>
