<svg width="667" height="362" viewBox="0 0 667 362" fill="none" xmlns="http://www.w3.org/2000/svg">
<path d="M666.667 523.667H0V-143H666.667V523.667Z" fill="white"/>
<path d="M478.867 167.977C478.867 167.099 478.152 166.384 477.273 166.384C476.395 166.384 475.679 167.099 475.679 167.977C475.679 168.857 476.395 169.572 477.273 169.572C478.152 169.572 478.867 168.857 478.867 167.977ZM480.433 167.977C480.433 169.721 479.016 171.139 477.273 171.139C475.531 171.139 474.113 169.721 474.113 167.977C474.113 166.236 475.531 164.817 477.273 164.817C479.016 164.817 480.433 166.236 480.433 167.977Z" fill="#ACD9EA"/>
<path d="M492.928 8.3972H475.028C474.596 8.3972 474.247 8.74788 474.247 9.17988C474.247 9.61322 474.596 9.96387 475.028 9.96387H492.928C493.361 9.96387 493.711 9.61322 493.711 9.17988C493.711 8.74788 493.361 8.3972 492.928 8.3972Z" fill="#ACD9EA"/>
<path d="M469.332 8.39427H465.835C465.403 8.39427 465.052 8.74495 465.052 9.17695C465.052 9.61029 465.403 9.96094 465.835 9.96094H469.332C469.764 9.96094 470.115 9.61029 470.115 9.17695C470.115 8.74495 469.764 8.39427 469.332 8.39427Z" fill="#ACD9EA"/>
<path d="M470.533 14.6343C470.533 15.0663 470.184 15.417 469.751 15.417H465.836C465.404 15.417 465.053 15.0663 465.053 14.6343C465.053 14.201 465.404 13.8503 465.836 13.8503H469.751C470.184 13.8503 470.533 14.201 470.533 14.6343ZM478.364 14.6343C478.364 15.0663 478.015 15.417 477.581 15.417H473.667C473.235 15.417 472.883 15.0663 472.883 14.6343C472.883 14.201 473.235 13.8503 473.667 13.8503H477.581C478.015 13.8503 478.364 14.201 478.364 14.6343ZM484.519 14.6343C484.519 15.0663 484.168 15.417 483.736 15.417H481.496C481.064 15.417 480.713 15.0663 480.713 14.6343C480.713 14.201 481.064 13.8503 481.496 13.8503H483.736C484.168 13.8503 484.519 14.201 484.519 14.6343Z" fill="#ACD9EA"/>
<path d="M506.357 58.2252C505.924 58.2252 505.575 58.5759 505.575 59.0079V60.8252C505.575 61.2572 505.924 61.6079 506.357 61.6079C506.791 61.6079 507.14 61.2572 507.14 60.8252V59.0079C507.14 58.5759 506.791 58.2252 506.357 58.2252Z" fill="#ACD9EA"/>
<path d="M504.308 56.404H502.492C502.06 56.404 501.708 56.7547 501.708 57.1867C501.708 57.6187 502.06 57.9707 502.492 57.9707H504.308C504.741 57.9707 505.091 57.6187 505.091 57.1867C505.091 56.7547 504.741 56.404 504.308 56.404Z" fill="#ACD9EA"/>
<path d="M506.357 52.6397C505.924 52.6397 505.575 52.9903 505.575 53.4223V55.2383C505.575 55.6703 505.924 56.021 506.357 56.021C506.791 56.021 507.14 55.6703 507.14 55.2383V53.4223C507.14 52.9903 506.791 52.6397 506.357 52.6397Z" fill="#ACD9EA"/>
<path d="M510.224 56.2784H508.408C507.975 56.2784 507.624 56.6291 507.624 57.0611C507.624 57.4944 507.975 57.8438 508.408 57.8438H510.224C510.656 57.8438 511.007 57.4944 511.007 57.0611C511.007 56.6291 510.656 56.2784 510.224 56.2784Z" fill="#ACD9EA"/>
<path d="M208.893 131.087C208.461 131.087 208.109 131.437 208.109 131.871V133.687C208.109 134.119 208.461 134.469 208.893 134.469C209.325 134.469 209.676 134.119 209.676 133.687V131.871C209.676 131.437 209.325 131.087 208.893 131.087Z" fill="#ACD9EA"/>
<path d="M206.844 129.265H205.027C204.595 129.265 204.244 129.616 204.244 130.048C204.244 130.48 204.595 130.831 205.027 130.831H206.844C207.276 130.831 207.627 130.48 207.627 130.048C207.627 129.616 207.276 129.265 206.844 129.265Z" fill="#ACD9EA"/>
<path d="M208.893 125.501C208.461 125.501 208.109 125.853 208.109 126.285V128.1C208.109 128.532 208.461 128.884 208.893 128.884C209.325 128.884 209.676 128.532 209.676 128.1V126.285C209.676 125.853 209.325 125.501 208.893 125.501Z" fill="#ACD9EA"/>
<path d="M212.759 129.14H210.943C210.511 129.14 210.159 129.491 210.159 129.923C210.159 130.356 210.511 130.707 210.943 130.707H212.759C213.192 130.707 213.541 130.356 213.541 129.923C213.541 129.491 213.192 129.14 212.759 129.14Z" fill="#ACD9EA"/>
<path d="M610.835 161.117H628.735C629.167 161.117 629.517 160.767 629.517 160.333C629.517 159.901 629.167 159.552 628.735 159.552H610.835C610.403 159.552 610.051 159.901 610.051 160.333C610.051 160.767 610.403 161.117 610.835 161.117Z" fill="#ACD9EA"/>
<path d="M634.431 161.12H637.928C638.361 161.12 638.711 160.769 638.711 160.337C638.711 159.905 638.361 159.554 637.928 159.554H634.431C633.997 159.554 633.647 159.905 633.647 160.337C633.647 160.769 633.997 161.12 634.431 161.12Z" fill="#ACD9EA"/>
<path d="M633.229 154.88C633.229 154.448 633.58 154.097 634.012 154.097H637.927C638.36 154.097 638.709 154.448 638.709 154.88C638.709 155.313 638.36 155.664 637.927 155.664H634.012C633.58 155.664 633.229 155.313 633.229 154.88ZM625.399 154.88C625.399 154.448 625.749 154.097 626.181 154.097H630.096C630.528 154.097 630.879 154.448 630.879 154.88C630.879 155.313 630.528 155.664 630.096 155.664H626.181C625.749 155.664 625.399 155.313 625.399 154.88ZM619.244 154.88C619.244 154.448 619.595 154.097 620.028 154.097H622.265C622.697 154.097 623.049 154.448 623.049 154.88C623.049 155.313 622.697 155.664 622.265 155.664H620.028C619.595 155.664 619.244 155.313 619.244 154.88Z" fill="#ACD9EA"/>
<path d="M309.576 62.9561H327.475C327.908 62.9561 328.257 62.6054 328.257 62.1734C328.257 61.7414 327.908 61.3907 327.475 61.3907H309.576C309.143 61.3907 308.793 61.7414 308.793 62.1734C308.793 62.6054 309.143 62.9561 309.576 62.9561Z" fill="#ACD9EA"/>
<path d="M333.172 62.9585H336.669C337.103 62.9585 337.453 62.6092 337.453 62.1758C337.453 61.7438 337.103 61.3932 336.669 61.3932H333.172C332.74 61.3932 332.389 61.7438 332.389 62.1758C332.389 62.6092 332.74 62.9585 333.172 62.9585Z" fill="#ACD9EA"/>
<path d="M331.971 56.7198C331.971 56.2864 332.32 55.9371 332.752 55.9371H336.668C337.1 55.9371 337.452 56.2864 337.452 56.7198C337.452 57.1518 337.1 57.5024 336.668 57.5024H332.752C332.32 57.5024 331.971 57.1518 331.971 56.7198ZM324.139 56.7198C324.139 56.2864 324.491 55.9371 324.923 55.9371H328.839C329.271 55.9371 329.621 56.2864 329.621 56.7198C329.621 57.1518 329.271 57.5024 328.839 57.5024H324.923C324.491 57.5024 324.139 57.1518 324.139 56.7198ZM317.985 56.7198C317.985 56.2864 318.336 55.9371 318.768 55.9371H321.008C321.44 55.9371 321.791 56.2864 321.791 56.7198C321.791 57.1518 321.44 57.5024 321.008 57.5024H318.768C318.336 57.5024 317.985 57.1518 317.985 56.7198Z" fill="#ACD9EA"/>
<path d="M597.968 183.364C598.4 183.364 598.751 183.013 598.751 182.581V180.764C598.751 180.332 598.4 179.981 597.968 179.981C597.535 179.981 597.185 180.332 597.185 180.764V182.581C597.185 183.013 597.535 183.364 597.968 183.364Z" fill="#ACD9EA"/>
<path d="M600.017 185.187H601.833C602.265 185.187 602.616 184.835 602.616 184.403C602.616 183.971 602.265 183.62 601.833 183.62H600.017C599.584 183.62 599.235 183.971 599.235 184.403C599.235 184.835 599.584 185.187 600.017 185.187Z" fill="#ACD9EA"/>
<path d="M597.968 188.949C598.4 188.949 598.751 188.599 598.751 188.167V186.351C598.751 185.919 598.4 185.568 597.968 185.568C597.535 185.568 597.185 185.919 597.185 186.351V188.167C597.185 188.599 597.535 188.949 597.968 188.949Z" fill="#ACD9EA"/>
<path d="M594.101 185.311H595.917C596.351 185.311 596.7 184.961 596.7 184.528C596.7 184.096 596.351 183.745 595.917 183.745H594.101C593.669 183.745 593.317 184.096 593.317 184.528C593.317 184.961 593.669 185.311 594.101 185.311Z" fill="#ACD9EA"/>
<path d="M74.8672 46.9347H56.9677C56.5355 46.9347 56.1849 47.284 56.1849 47.7173C56.1849 48.1493 56.5355 48.5 56.9677 48.5H74.8672C75.2995 48.5 75.6495 48.1493 75.6495 47.7173C75.6495 47.284 75.2995 46.9347 74.8672 46.9347Z" fill="#ACD9EA"/>
<path d="M51.2708 46.9304H47.7735C47.3402 46.9304 46.9896 47.2811 46.9896 47.7144C46.9896 48.1464 47.3402 48.4971 47.7735 48.4971H51.2708C51.7031 48.4971 52.0531 48.1464 52.0531 47.7144C52.0531 47.2811 51.7031 46.9304 51.2708 46.9304Z" fill="#ACD9EA"/>
<path d="M52.4729 53.1705C52.4729 53.6025 52.1224 53.9531 51.6901 53.9531H47.7751C47.3421 53.9531 46.9912 53.6025 46.9912 53.1705C46.9912 52.7385 47.3421 52.3878 47.7751 52.3878H51.6901C52.1224 52.3878 52.4729 52.7385 52.4729 53.1705ZM60.3031 53.1705C60.3031 53.6025 59.9521 53.9531 59.5193 53.9531H55.6041C55.1719 53.9531 54.8213 53.6025 54.8213 53.1705C54.8213 52.7385 55.1719 52.3878 55.6041 52.3878H59.5193C59.9521 52.3878 60.3031 52.7385 60.3031 53.1705ZM66.4573 53.1705C66.4573 53.6025 66.1068 53.9531 65.6745 53.9531H63.4349C63.0027 53.9531 62.6527 53.6025 62.6527 53.1705C62.6527 52.7385 63.0027 52.3878 63.4349 52.3878H65.6745C66.1068 52.3878 66.4573 52.7385 66.4573 53.1705Z" fill="#ACD9EA"/>
<path d="M100.286 64.964C99.8542 64.964 99.5037 65.3133 99.5037 65.7467V67.5627C99.5037 67.996 99.8542 68.3467 100.286 68.3467C100.719 68.3467 101.069 67.996 101.069 67.5627V65.7467C101.069 65.3133 100.719 64.964 100.286 64.964Z" fill="#ACD9EA"/>
<path d="M98.2369 63.1413H96.4202C95.9879 63.1413 95.6379 63.492 95.6379 63.9253C95.6379 64.3573 95.9879 64.708 96.4202 64.708H98.2369C98.6693 64.708 99.0193 64.3573 99.0193 63.9253C99.0193 63.492 98.6693 63.1413 98.2369 63.1413Z" fill="#ACD9EA"/>
<path d="M100.286 59.3785C99.8542 59.3785 99.5037 59.7291 99.5037 60.1611V61.9758C99.5037 62.4091 99.8542 62.7598 100.286 62.7598C100.719 62.7598 101.069 62.4091 101.069 61.9758V60.1611C101.069 59.7291 100.719 59.3785 100.286 59.3785Z" fill="#ACD9EA"/>
<path d="M104.153 63.0172H102.336C101.904 63.0172 101.553 63.3665 101.553 63.7998C101.553 64.2318 101.904 64.5825 102.336 64.5825H104.153C104.585 64.5825 104.936 64.2318 104.936 63.7998C104.936 63.3665 104.585 63.0172 104.153 63.0172Z" fill="#ACD9EA"/>
<path d="M30.6885 11.6303C30.6885 11.6303 31.0598 14.2877 27.9557 14.2277C27.9557 14.2277 30.624 14.2544 30.5521 16.749C30.5521 16.749 30.7917 14.7864 33.2396 14.3477C33.2396 14.3477 31.1718 14.8223 30.6885 11.6303Z" fill="#ACD9EA"/>
<path d="M261.527 92.5187C261.527 92.5187 261.897 95.176 258.793 95.116C258.793 95.116 261.461 95.1427 261.389 97.6387C261.389 97.6387 261.629 95.6747 264.077 95.236C264.077 95.236 262.009 95.7107 261.527 92.5187Z" fill="#ACD9EA"/>
<path d="M210.963 14.0319C210.963 14.0319 211.335 16.6905 208.229 16.6292C208.229 16.6292 210.897 16.6559 210.825 19.1519C210.825 19.1519 211.067 17.1892 213.515 16.7492C213.515 16.7492 211.445 17.2239 210.963 14.0319Z" fill="#ACD9EA"/>
<path d="M635.895 239.963C635.895 239.963 636.267 242.621 633.163 242.56C633.163 242.56 635.831 242.587 635.759 245.083C635.759 245.083 635.999 243.119 638.447 242.681C638.447 242.681 636.379 243.155 635.895 239.963Z" fill="#ACD9EA"/>
<path d="M573.964 148.577C573.964 148.577 574.336 151.236 571.232 151.175C571.232 151.175 573.9 151.203 573.828 153.697C573.828 153.697 574.068 151.735 576.516 151.296C576.516 151.296 574.448 151.771 573.964 148.577Z" fill="#ACD9EA"/>
<path d="M590.005 38.0733C589.573 38.0733 589.223 38.4239 589.223 38.8559V40.6719C589.223 41.1053 589.573 41.4546 590.005 41.4546C590.437 41.4546 590.789 41.1053 590.789 40.6719V38.8559C590.789 38.4239 590.437 38.0733 590.005 38.0733Z" fill="#ACD9EA"/>
<path d="M587.956 36.2507H586.139C585.707 36.2507 585.357 36.6014 585.357 37.0334C585.357 37.4667 585.707 37.8174 586.139 37.8174H587.956C588.388 37.8174 588.74 37.4667 588.74 37.0334C588.74 36.6014 588.388 36.2507 587.956 36.2507Z" fill="#ACD9EA"/>
<path d="M590.005 32.4878C589.573 32.4878 589.223 32.8385 589.223 33.2705V35.0865C589.223 35.5185 589.573 35.8691 590.005 35.8691C590.437 35.8691 590.789 35.5185 590.789 35.0865V33.2705C590.789 32.8385 590.437 32.4878 590.005 32.4878Z" fill="#ACD9EA"/>
<path d="M593.872 36.1266H592.055C591.623 36.1266 591.272 36.4759 591.272 36.9092C591.272 37.3412 591.623 37.6919 592.055 37.6919H593.872C594.305 37.6919 594.655 37.3412 594.655 36.9092C594.655 36.4759 594.305 36.1266 593.872 36.1266Z" fill="#ACD9EA"/>
<path d="M443.657 49.5386H461.557C461.989 49.5386 462.34 49.1879 462.34 48.7559C462.34 48.3239 461.989 47.9719 461.557 47.9719H443.657C443.225 47.9719 442.875 48.3239 442.875 48.7559C442.875 49.1879 443.225 49.5386 443.657 49.5386Z" fill="#ACD9EA"/>
<path d="M434.464 49.541H437.961C438.393 49.541 438.744 49.1917 438.744 48.7583C438.744 48.3263 438.393 47.9757 437.961 47.9757H434.464C434.031 47.9757 433.68 48.3263 433.68 48.7583C433.68 49.1917 434.031 49.541 434.464 49.541Z" fill="#ACD9EA"/>
<path d="M601.997 101.4C600.431 101.4 599.157 102.673 599.157 104.239C599.157 105.805 600.431 107.077 601.997 107.077H619.377C620.943 107.077 622.216 105.805 622.216 104.239C622.216 102.673 620.943 101.4 619.377 101.4H617.371L617.292 100.897C616.989 98.9985 615.188 97.6705 613.179 98.1505L612.739 98.2545L612.519 97.8612C611.627 96.2612 609.936 95.2678 608.109 95.2678C605.325 95.2678 603.061 97.5319 603.061 100.315C603.061 100.463 603.071 100.608 603.084 100.752L603.139 101.4H601.997ZM619.377 108.271H601.997C599.773 108.271 597.965 106.463 597.965 104.239C597.965 102.059 599.704 100.277 601.868 100.208C601.925 96.8158 604.703 94.0745 608.109 94.0745C610.223 94.0745 612.188 95.1492 613.335 96.9065C615.679 96.5732 617.768 98.0465 618.361 100.207H619.377C621.601 100.207 623.411 102.016 623.411 104.239C623.411 106.463 621.601 108.271 619.377 108.271Z" fill="#ACD9EA"/>
<path d="M295.699 151.933C294.135 151.933 292.86 153.206 292.86 154.772C292.86 156.337 294.135 157.61 295.699 157.61H313.08C314.645 157.61 315.919 156.337 315.919 154.772C315.919 153.206 314.645 151.933 313.08 151.933H311.075L310.995 151.429C310.693 149.53 308.888 148.205 306.88 148.684L306.441 148.788L306.221 148.393C305.328 146.793 303.639 145.8 301.811 145.8C299.027 145.8 296.763 148.064 296.763 150.848C296.763 150.996 296.773 151.141 296.785 151.285L296.841 151.933H295.699ZM313.08 158.804H295.699C293.476 158.804 291.668 156.996 291.668 154.772C291.668 152.59 293.408 150.809 295.571 150.741C295.628 147.349 298.405 144.606 301.811 144.606C303.924 144.606 305.889 145.682 307.037 147.44C309.379 147.106 311.471 148.578 312.064 150.74H313.08C315.304 150.74 317.112 152.549 317.112 154.772C317.112 156.996 315.304 158.804 313.08 158.804Z" fill="#ACD9EA"/>
<path d="M87.7073 301.766C87.7073 301.766 88.776 309.393 79.8656 309.217C79.8656 309.217 87.5193 309.296 87.3177 316.453C87.3177 316.453 88.0068 310.822 95.0303 309.565C95.0303 309.565 89.0953 310.926 87.7073 301.766Z" fill="#3F8BC9"/>
<path d="M216.897 360.253C215.332 360.253 214.059 361.526 214.059 363.093C214.059 364.658 215.332 365.932 216.897 365.932H234.279C235.844 365.932 237.117 364.658 237.117 363.093C237.117 361.526 235.844 360.253 234.279 360.253H232.272L232.193 359.75C231.891 357.853 230.088 356.525 228.079 357.005L227.639 357.109L227.419 356.714C226.527 355.116 224.837 354.122 223.009 354.122C220.225 354.122 217.961 356.386 217.961 359.169C217.961 359.317 217.972 359.462 217.983 359.606L218.039 360.253H216.897ZM234.279 367.125H216.897C214.675 367.125 212.865 365.316 212.865 363.093C212.865 360.913 214.605 359.132 216.769 359.062C216.827 355.67 219.604 352.928 223.009 352.928C225.124 352.928 227.088 354.004 228.236 355.761C230.579 355.426 232.669 356.901 233.261 359.061H234.279C236.501 359.061 238.309 360.869 238.309 363.093C238.309 365.316 236.501 367.125 234.279 367.125Z" fill="#ACD9EA"/>
<path d="M413.143 319.649H431.041C431.475 319.649 431.825 319.3 431.825 318.866C431.825 318.433 431.475 318.082 431.041 318.082H413.143C412.711 318.082 412.36 318.433 412.36 318.866C412.36 319.3 412.711 319.649 413.143 319.649Z" fill="#ACD9EA"/>
<path d="M403.948 319.652H407.445C407.877 319.652 408.229 319.303 408.229 318.869C408.229 318.437 407.877 318.087 407.445 318.087H403.948C403.516 318.087 403.165 318.437 403.165 318.869C403.165 319.303 403.516 319.652 403.948 319.652Z" fill="#ACD9EA"/>
<path d="M192.499 192.06C192.499 192.06 193.568 199.688 184.657 199.511C184.657 199.511 192.311 199.588 192.109 206.747C192.109 206.747 192.799 201.116 199.821 199.859C199.821 199.859 193.887 201.22 192.499 192.06Z" fill="#3F8BC9"/>
<path d="M408.787 358.62C408.787 358.62 409.159 361.277 406.055 361.216C406.055 361.216 408.723 361.244 408.651 363.74C408.651 363.74 408.891 361.776 411.339 361.337C411.339 361.337 409.269 361.81 408.787 358.62Z" fill="#ACD9EA"/>
<path d="M586.436 246.461C584.869 246.461 583.596 247.735 583.596 249.3C583.596 250.865 584.869 252.137 586.436 252.137H603.816C605.381 252.137 606.655 250.865 606.655 249.3C606.655 247.735 605.381 246.461 603.816 246.461H601.809L601.731 245.959C601.428 244.06 599.627 242.729 597.616 243.211L597.177 243.316L596.957 242.921C596.064 241.321 594.375 240.328 592.547 240.328C589.764 240.328 587.499 242.592 587.499 245.376C587.499 245.524 587.509 245.669 587.523 245.812L587.577 246.461H586.436ZM603.816 253.332H586.436C584.212 253.332 582.404 251.524 582.404 249.3C582.404 247.12 584.143 245.337 586.307 245.269C586.364 241.877 589.141 239.136 592.547 239.136C594.661 239.136 596.627 240.211 597.773 241.968C600.116 241.633 602.207 243.107 602.8 245.267H603.816C606.039 245.267 607.849 247.077 607.849 249.3C607.849 251.524 606.039 253.332 603.816 253.332Z" fill="#ACD9EA"/>
<path d="M38.5087 105.21C38.5087 105.21 39.5781 112.838 30.6682 112.662C30.6682 112.662 38.3213 112.741 38.1197 119.897C38.1197 119.897 38.8083 114.268 45.8306 113.009C45.8306 113.009 39.8973 114.37 38.5087 105.21Z" fill="#3F8BC9"/>
<path d="M626.535 -11.9923C626.535 -11.9923 627.604 -4.36567 618.695 -4.54167C618.695 -4.54167 626.348 -4.463 626.147 2.69434C626.147 2.69434 626.836 -2.93632 633.859 -4.19365C633.859 -4.19365 627.923 -2.83232 626.535 -11.9923Z" fill="#3F8BC9"/>
<path d="M189.444 51.6292C189.444 51.6292 190.513 59.2559 181.603 59.0799C181.603 59.0799 189.256 59.1586 189.056 66.3159C189.056 66.3159 189.744 60.6852 196.767 59.4279C196.767 59.4279 190.832 60.7892 189.444 51.6292Z" fill="#3F8BC9"/>
<path d="M448.135 254.8H430.235C429.803 254.8 429.452 255.151 429.452 255.583C429.452 256.016 429.803 256.365 430.235 256.365H448.135C448.567 256.365 448.917 256.016 448.917 255.583C448.917 255.151 448.567 254.8 448.135 254.8Z" fill="#ACD9EA"/>
<path d="M424.537 254.797H421.04C420.608 254.797 420.256 255.146 420.256 255.58C420.256 256.012 420.608 256.362 421.04 256.362H424.537C424.971 256.362 425.32 256.012 425.32 255.58C425.32 255.146 424.971 254.797 424.537 254.797Z" fill="#ACD9EA"/>
<path d="M425.74 261.036C425.74 261.469 425.389 261.818 424.957 261.818H421.041C420.609 261.818 420.259 261.469 420.259 261.036C420.259 260.604 420.609 260.253 421.041 260.253H424.957C425.389 260.253 425.74 260.604 425.74 261.036ZM433.571 261.036C433.571 261.469 433.219 261.818 432.787 261.818H428.871C428.439 261.818 428.088 261.469 428.088 261.036C428.088 260.604 428.439 260.253 428.871 260.253H432.787C433.219 260.253 433.571 260.604 433.571 261.036ZM439.724 261.036C439.724 261.469 439.373 261.818 438.941 261.818H436.701C436.269 261.818 435.919 261.469 435.919 261.036C435.919 260.604 436.269 260.253 436.701 260.253H438.941C439.373 260.253 439.724 260.604 439.724 261.036Z" fill="#ACD9EA"/>
<path d="M572.833 313.593C572.4 313.593 572.049 313.944 572.049 314.377V316.193C572.049 316.626 572.4 316.976 572.833 316.976C573.265 316.976 573.616 316.626 573.616 316.193V314.377C573.616 313.944 573.265 313.593 572.833 313.593Z" fill="#ACD9EA"/>
<path d="M570.784 311.772H568.968C568.535 311.772 568.185 312.122 568.185 312.556C568.185 312.988 568.535 313.338 568.968 313.338H570.784C571.216 313.338 571.567 312.988 571.567 312.556C571.567 312.122 571.216 311.772 570.784 311.772Z" fill="#ACD9EA"/>
<path d="M572.833 308.009C572.4 308.009 572.049 308.36 572.049 308.792V310.607C572.049 311.04 572.4 311.391 572.833 311.391C573.265 311.391 573.616 311.04 573.616 310.607V308.792C573.616 308.36 573.265 308.009 572.833 308.009Z" fill="#ACD9EA"/>
<path d="M576.699 311.647H574.883C574.451 311.647 574.1 311.997 574.1 312.429C574.1 312.863 574.451 313.213 574.883 313.213H576.699C577.132 313.213 577.481 312.863 577.481 312.429C577.481 311.997 577.132 311.647 576.699 311.647Z" fill="#ACD9EA"/>
<path d="M482.631 249.494C482.631 249.494 483.003 252.152 479.897 252.092C479.897 252.092 482.567 252.12 482.495 254.614C482.495 254.614 482.735 252.65 485.183 252.212C485.183 252.212 483.113 252.688 482.631 249.494Z" fill="#ACD9EA"/>
<path d="M459.887 335.15C459.887 335.15 460.956 342.778 452.045 342.602C452.045 342.602 459.699 342.681 459.497 349.838C459.497 349.838 460.187 344.208 467.209 342.95C467.209 342.95 461.275 344.31 459.887 335.15Z" fill="#3F8BC9"/>
<path d="M410.832 -5.20817C410.832 -5.20817 411.901 2.41851 402.991 2.24251C402.991 2.24251 410.644 2.32118 410.444 9.47852C410.444 9.47852 411.132 3.84783 418.155 2.58916C418.155 2.58916 412.22 3.9505 410.832 -5.20817Z" fill="#3F8BC9"/>
<path d="M84.0338 155.963C84.0338 155.963 84.4062 158.62 81.301 158.56C81.301 158.56 83.9697 158.587 83.8984 161.083C83.8984 161.083 84.138 159.119 86.586 158.68C86.586 158.68 84.5172 159.155 84.0338 155.963Z" fill="#ACD9EA"/>
<path d="M58.8047 213.325C57.2397 213.325 55.9662 214.598 55.9662 216.165C55.9662 217.73 57.2397 219.004 58.8047 219.004H76.185C77.7517 219.004 79.0251 217.73 79.0251 216.165C79.0251 214.598 77.7517 213.325 76.185 213.325H74.1787L74.099 212.822C73.797 210.924 71.9949 209.593 69.9861 210.077L69.5459 210.181L69.3255 209.786C68.4339 208.188 66.7433 207.194 64.9167 207.194C62.1329 207.194 59.8689 209.458 59.8689 212.241C59.8689 212.389 59.8793 212.533 59.8907 212.678L59.947 213.325H58.8047ZM76.185 220.196H58.8047C56.5807 220.196 54.7725 218.388 54.7725 216.165C54.7725 213.984 56.5121 212.202 58.6755 212.134C58.7329 208.742 61.5105 206 64.9167 206C67.0303 206 68.9949 207.076 70.1418 208.833C72.4845 208.498 74.5755 209.972 75.1694 212.133H76.185C78.4089 212.133 80.2178 213.941 80.2178 216.165C80.2178 218.388 78.4089 220.196 76.185 220.196Z" fill="#ACD9EA"/>
<path d="M265.003 16.7493C265.003 15.8706 264.288 15.156 263.409 15.156C262.528 15.156 261.813 15.8706 261.813 16.7493C261.813 17.6293 262.528 18.344 263.409 18.344C264.288 18.344 265.003 17.6293 265.003 16.7493ZM266.568 16.7493C266.568 18.4933 265.151 19.9106 263.409 19.9106C261.665 19.9106 260.248 18.4933 260.248 16.7493C260.248 15.0066 261.665 13.5893 263.409 13.5893C265.151 13.5893 266.568 15.0066 266.568 16.7493Z" fill="#ACD9EA"/>
<path d="M499.551 214.508V251.801L462.259 214.508H499.551Z" fill="#3F8BC9"/>
<path d="M418.359 208.84H499.551V218.732H418.359C415.632 218.732 413.412 216.512 413.412 213.785C413.412 211.06 415.632 208.84 418.359 208.84Z" fill="#6CADEF"/>
<path d="M545.383 77.6733H550.328V43.8773H545.383V77.6733Z" fill="#3F8BC9"/>
<path d="M542.909 80.1465H552.8V41.4038H542.909V80.1465Z" fill="#3F8BC9"/>
<path d="M553.956 74.376H523.951C517.577 74.376 512.411 79.5427 512.411 85.916H565.496C565.496 79.5427 560.328 74.376 553.956 74.376Z" fill="#3F8BC9"/>
<path d="M553.955 75.7599H523.952C518.821 75.7599 514.567 79.5839 513.888 84.5306H564.017C563.339 79.5839 559.084 75.7599 553.955 75.7599ZM511.027 85.916C511.027 78.7893 516.824 72.9906 523.952 72.9906H553.955C561.081 72.9906 566.879 78.7893 566.879 85.916C566.879 86.6813 566.26 87.3013 565.496 87.3013H512.411C511.644 87.3013 511.027 86.6813 511.027 85.916Z" fill="#3F8BC9"/>
<path d="M527.165 148.035L545.932 166.8L527.165 185.567L508.399 166.8L527.165 148.035ZM545.932 218.32L527.165 237.085L508.399 218.32L527.165 199.553L545.932 218.32ZM545.932 269.839L527.165 288.603L508.399 269.839L527.165 251.073L545.932 269.839ZM545.932 321.357L527.165 340.123L508.399 321.357L527.165 302.591L545.932 321.357ZM545.932 372.876L527.165 391.641L508.399 372.876L527.165 354.111L545.932 372.876ZM496.423 165.813C496.423 166.159 496.504 166.493 496.64 166.804C496.247 167.708 496.408 168.797 497.147 169.536L520.172 192.56L497.147 215.584C496.408 216.323 496.247 217.413 496.64 218.316C496.504 218.627 496.423 218.961 496.423 219.307C496.423 219.963 496.684 220.591 497.147 221.055L520.172 244.08L497.147 267.101C496.408 267.843 496.247 268.929 496.64 269.836C496.504 270.145 496.423 270.479 496.423 270.825C496.423 271.48 496.684 272.111 497.147 272.575L520.172 295.597L497.147 318.621C496.684 319.084 496.423 319.713 496.423 320.369C496.423 320.715 496.504 321.049 496.64 321.36C496.247 322.264 496.408 323.353 497.147 324.092L520.172 347.116L497.147 370.14C496.408 370.879 496.247 371.969 496.64 372.872C496.504 373.184 496.423 373.519 496.423 373.863C496.423 374.519 496.684 375.148 497.147 375.612L520.172 398.636L497.147 421.659C496.183 422.625 496.183 424.189 497.147 425.155L500.644 428.652C501.108 429.116 501.736 429.376 502.393 429.376C503.049 429.376 503.677 429.117 504.141 428.652L527.165 405.629L550.191 428.652C550.653 429.116 551.281 429.376 551.937 429.376C552.595 429.376 553.223 429.116 553.687 428.652L557.184 425.155C558.149 424.189 558.149 422.625 557.184 421.659L534.159 398.636L557.184 375.612C557.647 375.148 557.908 374.519 557.908 373.863C557.908 373.519 557.827 373.184 557.691 372.872C558.084 371.969 557.923 370.879 557.184 370.14L534.159 347.116L557.184 324.092C557.923 323.353 558.084 322.264 557.691 321.36C557.827 321.049 557.908 320.715 557.908 320.369C557.908 319.713 557.647 319.084 557.184 318.621L534.159 295.597L557.184 272.575C557.647 272.111 557.908 271.48 557.908 270.825C557.908 270.479 557.827 270.145 557.691 269.836C558.084 268.929 557.923 267.843 557.184 267.101L534.159 244.08L557.184 221.055C557.647 220.591 557.908 219.963 557.908 219.307C557.908 218.961 557.827 218.627 557.691 218.316C558.084 217.413 557.923 216.323 557.184 215.584L534.159 192.56L557.184 169.536C557.923 168.797 558.084 167.708 557.691 166.804C557.827 166.493 557.908 166.159 557.908 165.813C557.908 165.157 557.647 164.528 557.184 164.065L534.159 141.041L557.184 118.019C557.647 117.555 557.908 116.924 557.908 116.269C557.908 115.612 557.647 114.985 557.184 114.521L553.687 111.024C552.72 110.059 551.155 110.059 550.191 111.024L527.165 134.047L504.141 111.024C503.176 110.059 501.611 110.059 500.644 111.024L497.147 114.521C496.684 114.985 496.423 115.612 496.423 116.269C496.423 116.924 496.684 117.555 497.147 118.019L520.172 141.041L497.147 164.065C496.684 164.528 496.423 165.157 496.423 165.813Z" fill="#3F8BC9"/>
<path d="M559.313 99.2079V440.469H549.421V99.2079H559.313Z" fill="#6CADEF"/>
<path d="M504.909 99.2079V440.469H495.019V99.2079H504.909Z" fill="#6CADEF"/>
<path d="M478.12 84.2666H572.915C574.281 84.2666 575.387 85.3746 575.387 86.74C575.387 99.4666 565.033 109.821 552.307 109.821H498.727C486 109.821 475.647 99.4666 475.647 86.74C475.647 85.3746 476.753 84.2666 478.12 84.2666Z" fill="#6CADEF"/>
<path d="M547.855 -0.576233C562.933 -0.576233 575.203 11.6931 575.203 26.7718C575.203 41.8531 562.933 54.1211 547.855 54.1211C532.775 54.1211 520.505 41.8531 520.505 26.7718C520.505 11.6931 532.775 -0.576233 547.855 -0.576233Z" fill="#6CADEF"/>
<path d="M529.845 22.1026C529.845 32.0493 537.909 40.1133 547.856 40.1133C557.803 40.1133 565.865 32.0493 565.865 22.1026C565.865 12.1573 557.803 4.09326 547.856 4.09326C537.909 4.09326 529.845 12.1573 529.845 22.1026Z" fill="#3F8BC9"/>
<path d="M547.856 29.1064C548.961 29.1064 549.857 28.2104 549.857 27.1064V15.7664C549.857 14.6611 548.961 13.7651 547.856 13.7651C546.751 13.7651 545.855 14.6611 545.855 15.7664V27.1064C545.855 28.2104 546.751 29.1064 547.856 29.1064Z" fill="#6CADEF"/>
<path d="M540.852 18.101C540.852 21.969 543.987 25.105 547.856 25.105C551.724 25.105 554.86 21.969 554.86 18.101C554.86 14.233 551.724 11.097 547.856 11.097C543.987 11.097 540.852 14.233 540.852 18.101Z" fill="#E6F5FF"/>
<path d="M554.367 117.083C555.256 117.083 555.976 116.361 555.976 115.473C555.976 114.584 555.256 113.864 554.367 113.864C553.479 113.864 552.757 114.584 552.757 115.473C552.757 116.361 553.479 117.083 554.367 117.083Z" fill="#3F8BC9"/>
<path d="M554.367 126.917C555.256 126.917 555.976 126.196 555.976 125.306C555.976 124.418 555.256 123.698 554.367 123.698C553.479 123.698 552.757 124.418 552.757 125.306C552.757 126.196 553.479 126.917 554.367 126.917Z" fill="#3F8BC9"/>
<path d="M554.367 136.75C555.256 136.75 555.976 136.031 555.976 135.141C555.976 134.252 555.256 133.532 554.367 133.532C553.479 133.532 552.757 134.252 552.757 135.141C552.757 136.031 553.479 136.75 554.367 136.75Z" fill="#3F8BC9"/>
<path d="M554.367 146.584C555.256 146.584 555.976 145.864 555.976 144.976C555.976 144.087 555.256 143.367 554.367 143.367C553.479 143.367 552.757 144.087 552.757 144.976C552.757 145.864 553.479 146.584 554.367 146.584Z" fill="#3F8BC9"/>
<path d="M554.367 156.418C555.256 156.418 555.976 155.698 555.976 154.809C555.976 153.921 555.256 153.2 554.367 153.2C553.479 153.2 552.757 153.921 552.757 154.809C552.757 155.698 553.479 156.418 554.367 156.418Z" fill="#3F8BC9"/>
<path d="M554.367 166.253C555.256 166.253 555.976 165.532 555.976 164.644C555.976 163.754 555.256 163.034 554.367 163.034C553.479 163.034 552.757 163.754 552.757 164.644C552.757 165.532 553.479 166.253 554.367 166.253Z" fill="#3F8BC9"/>
<path d="M554.367 176.086C555.256 176.086 555.976 175.366 555.976 174.477C555.976 173.589 555.256 172.868 554.367 172.868C553.479 172.868 552.757 173.589 552.757 174.477C552.757 175.366 553.479 176.086 554.367 176.086Z" fill="#3F8BC9"/>
<path d="M554.367 185.921C555.256 185.921 555.976 185.2 555.976 184.312C555.976 183.422 555.256 182.702 554.367 182.702C553.479 182.702 552.757 183.422 552.757 184.312C552.757 185.2 553.479 185.921 554.367 185.921Z" fill="#3F8BC9"/>
<path d="M554.367 195.754C555.256 195.754 555.976 195.034 555.976 194.145C555.976 193.257 555.256 192.536 554.367 192.536C553.479 192.536 552.757 193.257 552.757 194.145C552.757 195.034 553.479 195.754 554.367 195.754Z" fill="#3F8BC9"/>
<path d="M554.367 205.488C555.256 205.488 555.976 204.768 555.976 203.88C555.976 202.99 555.256 202.27 554.367 202.27C553.479 202.27 552.757 202.99 552.757 203.88C552.757 204.768 553.479 205.488 554.367 205.488Z" fill="#3F8BC9"/>
<path d="M554.367 215.322C555.256 215.322 555.976 214.602 555.976 213.713C555.976 212.825 555.256 212.104 554.367 212.104C553.479 212.104 552.757 212.825 552.757 213.713C552.757 214.602 553.479 215.322 554.367 215.322Z" fill="#3F8BC9"/>
<path d="M554.367 225.157C555.256 225.157 555.976 224.436 555.976 223.548C555.976 222.659 555.256 221.939 554.367 221.939C553.479 221.939 552.757 222.659 552.757 223.548C552.757 224.436 553.479 225.157 554.367 225.157Z" fill="#3F8BC9"/>
<path d="M554.367 234.99C555.256 234.99 555.976 234.27 555.976 233.381C555.976 232.493 555.256 231.772 554.367 231.772C553.479 231.772 552.757 232.493 552.757 233.381C552.757 234.27 553.479 234.99 554.367 234.99Z" fill="#3F8BC9"/>
<path d="M554.367 244.825C555.256 244.825 555.976 244.104 555.976 243.216C555.976 242.327 555.256 241.607 554.367 241.607C553.479 241.607 552.757 242.327 552.757 243.216C552.757 244.104 553.479 244.825 554.367 244.825Z" fill="#3F8BC9"/>
<path d="M554.367 254.659C555.256 254.659 555.976 253.939 555.976 253.049C555.976 252.161 555.256 251.441 554.367 251.441C553.479 251.441 552.757 252.161 552.757 253.049C552.757 253.939 553.479 254.659 554.367 254.659Z" fill="#3F8BC9"/>
<path d="M554.367 264.493C555.256 264.493 555.976 263.773 555.976 262.884C555.976 261.995 555.256 261.275 554.367 261.275C553.479 261.275 552.757 261.995 552.757 262.884C552.757 263.773 553.479 264.493 554.367 264.493Z" fill="#3F8BC9"/>
<path d="M554.367 274.327C555.256 274.327 555.976 273.607 555.976 272.719C555.976 271.829 555.256 271.109 554.367 271.109C553.479 271.109 552.757 271.829 552.757 272.719C552.757 273.607 553.479 274.327 554.367 274.327Z" fill="#3F8BC9"/>
<path d="M554.367 284.061C555.256 284.061 555.976 283.341 555.976 282.452C555.976 281.562 555.256 280.842 554.367 280.842C553.479 280.842 552.757 281.562 552.757 282.452C552.757 283.341 553.479 284.061 554.367 284.061Z" fill="#3F8BC9"/>
<path d="M554.367 293.895C555.256 293.895 555.976 293.175 555.976 292.287C555.976 291.397 555.256 290.677 554.367 290.677C553.479 290.677 552.757 291.397 552.757 292.287C552.757 293.175 553.479 293.895 554.367 293.895Z" fill="#3F8BC9"/>
<path d="M554.367 303.729C555.256 303.729 555.976 303.009 555.976 302.12C555.976 301.232 555.256 300.51 554.367 300.51C553.479 300.51 552.757 301.232 552.757 302.12C552.757 303.009 553.479 303.729 554.367 303.729Z" fill="#3F8BC9"/>
<path d="M554.367 313.564C555.256 313.564 555.976 312.843 555.976 311.955C555.976 311.065 555.256 310.345 554.367 310.345C553.479 310.345 552.757 311.065 552.757 311.955C552.757 312.843 553.479 313.564 554.367 313.564Z" fill="#3F8BC9"/>
<path d="M554.367 323.397C555.256 323.397 555.976 322.677 555.976 321.788C555.976 320.9 555.256 320.178 554.367 320.178C553.479 320.178 552.757 320.9 552.757 321.788C552.757 322.677 553.479 323.397 554.367 323.397Z" fill="#3F8BC9"/>
<path d="M554.367 333.232C555.256 333.232 555.976 332.511 555.976 331.623C555.976 330.733 555.256 330.013 554.367 330.013C553.479 330.013 552.757 330.733 552.757 331.623C552.757 332.511 553.479 333.232 554.367 333.232Z" fill="#3F8BC9"/>
<path d="M554.367 343.065C555.256 343.065 555.976 342.345 555.976 341.456C555.976 340.568 555.256 339.848 554.367 339.848C553.479 339.848 552.757 340.568 552.757 341.456C552.757 342.345 553.479 343.065 554.367 343.065Z" fill="#3F8BC9"/>
<path d="M554.367 352.9C555.256 352.9 555.976 352.18 555.976 351.291C555.976 350.401 555.256 349.681 554.367 349.681C553.479 349.681 552.757 350.401 552.757 351.291C552.757 352.18 553.479 352.9 554.367 352.9Z" fill="#3F8BC9"/>
<path d="M554.367 362.633C555.256 362.633 555.976 361.913 555.976 361.024C555.976 360.136 555.256 359.415 554.367 359.415C553.479 359.415 552.757 360.136 552.757 361.024C552.757 361.913 553.479 362.633 554.367 362.633Z" fill="#3F8BC9"/>
<path d="M500.028 117.083C500.916 117.083 501.637 116.361 501.637 115.473C501.637 114.584 500.916 113.864 500.028 113.864C499.139 113.864 498.417 114.584 498.417 115.473C498.417 116.361 499.139 117.083 500.028 117.083Z" fill="#3F8BC9"/>
<path d="M500.028 126.917C500.916 126.917 501.637 126.196 501.637 125.306C501.637 124.418 500.916 123.698 500.028 123.698C499.139 123.698 498.417 124.418 498.417 125.306C498.417 126.196 499.139 126.917 500.028 126.917Z" fill="#3F8BC9"/>
<path d="M500.028 136.75C500.916 136.75 501.637 136.031 501.637 135.141C501.637 134.252 500.916 133.532 500.028 133.532C499.139 133.532 498.417 134.252 498.417 135.141C498.417 136.031 499.139 136.75 500.028 136.75Z" fill="#3F8BC9"/>
<path d="M500.028 146.584C500.916 146.584 501.637 145.864 501.637 144.976C501.637 144.087 500.916 143.367 500.028 143.367C499.139 143.367 498.417 144.087 498.417 144.976C498.417 145.864 499.139 146.584 500.028 146.584Z" fill="#3F8BC9"/>
<path d="M500.028 156.418C500.916 156.418 501.637 155.698 501.637 154.809C501.637 153.921 500.916 153.2 500.028 153.2C499.139 153.2 498.417 153.921 498.417 154.809C498.417 155.698 499.139 156.418 500.028 156.418Z" fill="#3F8BC9"/>
<path d="M500.028 166.253C500.916 166.253 501.637 165.532 501.637 164.644C501.637 163.754 500.916 163.034 500.028 163.034C499.139 163.034 498.417 163.754 498.417 164.644C498.417 165.532 499.139 166.253 500.028 166.253Z" fill="#3F8BC9"/>
<path d="M500.028 176.086C500.916 176.086 501.637 175.366 501.637 174.477C501.637 173.589 500.916 172.868 500.028 172.868C499.139 172.868 498.417 173.589 498.417 174.477C498.417 175.366 499.139 176.086 500.028 176.086Z" fill="#3F8BC9"/>
<path d="M500.028 185.921C500.916 185.921 501.637 185.2 501.637 184.312C501.637 183.422 500.916 182.702 500.028 182.702C499.139 182.702 498.417 183.422 498.417 184.312C498.417 185.2 499.139 185.921 500.028 185.921Z" fill="#3F8BC9"/>
<path d="M500.028 195.754C500.916 195.754 501.637 195.034 501.637 194.145C501.637 193.257 500.916 192.536 500.028 192.536C499.139 192.536 498.417 193.257 498.417 194.145C498.417 195.034 499.139 195.754 500.028 195.754Z" fill="#3F8BC9"/>
<path d="M500.028 205.488C500.916 205.488 501.637 204.768 501.637 203.88C501.637 202.99 500.916 202.27 500.028 202.27C499.139 202.27 498.417 202.99 498.417 203.88C498.417 204.768 499.139 205.488 500.028 205.488Z" fill="#3F8BC9"/>
<path d="M500.028 215.322C500.916 215.322 501.637 214.602 501.637 213.713C501.637 212.825 500.916 212.104 500.028 212.104C499.139 212.104 498.417 212.825 498.417 213.713C498.417 214.602 499.139 215.322 500.028 215.322Z" fill="#3F8BC9"/>
<path d="M500.028 225.157C500.916 225.157 501.637 224.436 501.637 223.548C501.637 222.659 500.916 221.939 500.028 221.939C499.139 221.939 498.417 222.659 498.417 223.548C498.417 224.436 499.139 225.157 500.028 225.157Z" fill="#3F8BC9"/>
<path d="M500.028 234.99C500.916 234.99 501.637 234.27 501.637 233.381C501.637 232.493 500.916 231.772 500.028 231.772C499.139 231.772 498.417 232.493 498.417 233.381C498.417 234.27 499.139 234.99 500.028 234.99Z" fill="#3F8BC9"/>
<path d="M500.028 244.825C500.916 244.825 501.637 244.104 501.637 243.216C501.637 242.327 500.916 241.607 500.028 241.607C499.139 241.607 498.417 242.327 498.417 243.216C498.417 244.104 499.139 244.825 500.028 244.825Z" fill="#3F8BC9"/>
<path d="M500.028 254.659C500.916 254.659 501.637 253.939 501.637 253.049C501.637 252.161 500.916 251.441 500.028 251.441C499.139 251.441 498.417 252.161 498.417 253.049C498.417 253.939 499.139 254.659 500.028 254.659Z" fill="#3F8BC9"/>
<path d="M500.028 264.493C500.916 264.493 501.637 263.773 501.637 262.884C501.637 261.995 500.916 261.275 500.028 261.275C499.139 261.275 498.417 261.995 498.417 262.884C498.417 263.773 499.139 264.493 500.028 264.493Z" fill="#3F8BC9"/>
<path d="M500.028 274.327C500.916 274.327 501.637 273.607 501.637 272.719C501.637 271.829 500.916 271.109 500.028 271.109C499.139 271.109 498.417 271.829 498.417 272.719C498.417 273.607 499.139 274.327 500.028 274.327Z" fill="#3F8BC9"/>
<path d="M500.028 284.061C500.916 284.061 501.637 283.341 501.637 282.452C501.637 281.562 500.916 280.842 500.028 280.842C499.139 280.842 498.417 281.562 498.417 282.452C498.417 283.341 499.139 284.061 500.028 284.061Z" fill="#3F8BC9"/>
<path d="M500.028 293.895C500.916 293.895 501.637 293.175 501.637 292.287C501.637 291.397 500.916 290.677 500.028 290.677C499.139 290.677 498.417 291.397 498.417 292.287C498.417 293.175 499.139 293.895 500.028 293.895Z" fill="#3F8BC9"/>
<path d="M500.028 303.729C500.916 303.729 501.637 303.009 501.637 302.12C501.637 301.232 500.916 300.51 500.028 300.51C499.139 300.51 498.417 301.232 498.417 302.12C498.417 303.009 499.139 303.729 500.028 303.729Z" fill="#3F8BC9"/>
<path d="M500.028 313.564C500.916 313.564 501.637 312.843 501.637 311.955C501.637 311.065 500.916 310.345 500.028 310.345C499.139 310.345 498.417 311.065 498.417 311.955C498.417 312.843 499.139 313.564 500.028 313.564Z" fill="#3F8BC9"/>
<path d="M500.028 323.397C500.916 323.397 501.637 322.677 501.637 321.788C501.637 320.9 500.916 320.178 500.028 320.178C499.139 320.178 498.417 320.9 498.417 321.788C498.417 322.677 499.139 323.397 500.028 323.397Z" fill="#3F8BC9"/>
<path d="M500.028 333.232C500.916 333.232 501.637 332.511 501.637 331.623C501.637 330.733 500.916 330.013 500.028 330.013C499.139 330.013 498.417 330.733 498.417 331.623C498.417 332.511 499.139 333.232 500.028 333.232Z" fill="#3F8BC9"/>
<path d="M500.028 343.065C500.916 343.065 501.637 342.345 501.637 341.456C501.637 340.568 500.916 339.848 500.028 339.848C499.139 339.848 498.417 340.568 498.417 341.456C498.417 342.345 499.139 343.065 500.028 343.065Z" fill="#3F8BC9"/>
<path d="M500.028 352.9C500.916 352.9 501.637 352.18 501.637 351.291C501.637 350.401 500.916 349.681 500.028 349.681C499.139 349.681 498.417 350.401 498.417 351.291C498.417 352.18 499.139 352.9 500.028 352.9Z" fill="#3F8BC9"/>
<path d="M500.028 362.633C500.916 362.633 501.637 361.913 501.637 361.024C501.637 360.136 500.916 359.415 500.028 359.415C499.139 359.415 498.417 360.136 498.417 361.024C498.417 361.913 499.139 362.633 500.028 362.633Z" fill="#3F8BC9"/>
<path d="M172.677 325.788V363.081L209.969 325.788H172.677Z" fill="#3F8BC9"/>
<path d="M253.869 320.121H172.677V330.012H253.869C256.596 330.012 258.816 327.793 258.816 325.066C258.816 322.34 256.596 320.121 253.869 320.121Z" fill="#6CADEF"/>
<path d="M126.845 77.6733H121.899V43.8773H126.845V77.6733Z" fill="#3F8BC9"/>
<path d="M129.32 80.1465H119.429V41.4038H129.32V80.1465Z" fill="#3F8BC9"/>
<path d="M118.273 74.376H148.277C154.651 74.376 159.817 79.5427 159.817 85.916H106.733C106.733 79.5427 111.899 74.376 118.273 74.376Z" fill="#3F8BC9"/>
<path d="M108.211 84.5306H158.34C157.661 79.5839 153.407 75.7599 148.277 75.7599H118.273C113.145 75.7599 108.89 79.5839 108.211 84.5306ZM159.817 87.3013H106.733C105.968 87.3013 105.349 86.6813 105.349 85.916C105.349 78.7893 111.147 72.9906 118.273 72.9906H148.277C155.404 72.9906 161.201 78.7893 161.201 85.916C161.201 86.6813 160.584 87.3013 159.817 87.3013Z" fill="#3F8BC9"/>
<path d="M163.829 166.8L145.063 185.567L126.296 166.8L145.063 148.035L163.829 166.8ZM145.063 199.553L163.829 218.32L145.063 237.085L126.296 218.32L145.063 199.553ZM145.063 251.073L163.829 269.839L145.063 288.603L126.296 269.839L145.063 251.073ZM145.063 302.591L163.829 321.357L145.063 340.123L126.296 321.357L145.063 302.591ZM145.063 354.111L163.829 372.876L145.063 391.641L126.296 372.876L145.063 354.111ZM175.081 164.065L152.056 141.041L175.081 118.019C175.544 117.555 175.805 116.924 175.805 116.269C175.805 115.612 175.544 114.985 175.081 114.521L171.584 111.024C170.617 110.059 169.053 110.059 168.087 111.024L145.063 134.047L122.039 111.024C121.073 110.059 119.508 110.059 118.542 111.024L115.046 114.521C114.581 114.985 114.32 115.612 114.32 116.269C114.32 116.924 114.581 117.555 115.046 118.019L138.069 141.041L115.046 164.065C114.581 164.528 114.32 165.157 114.32 165.813C114.32 166.159 114.401 166.493 114.538 166.804C114.143 167.708 114.305 168.797 115.046 169.536L138.069 192.56L115.046 215.584C114.305 216.323 114.143 217.413 114.538 218.316C114.401 218.627 114.32 218.961 114.32 219.307C114.32 219.963 114.581 220.591 115.046 221.055L138.069 244.08L115.046 267.101C114.305 267.843 114.143 268.929 114.538 269.836C114.401 270.145 114.32 270.479 114.32 270.825C114.32 271.48 114.581 272.111 115.046 272.575L138.069 295.597L115.046 318.621C114.581 319.084 114.32 319.713 114.32 320.369C114.32 320.715 114.401 321.049 114.538 321.36C114.143 322.264 114.305 323.353 115.046 324.092L138.069 347.116L115.046 370.14C114.305 370.879 114.143 371.969 114.538 372.872C114.401 373.184 114.32 373.519 114.32 373.863C114.32 374.519 114.581 375.148 115.046 375.612L138.069 398.636L115.046 421.659C114.08 422.625 114.08 424.189 115.046 425.155L118.542 428.652C119.005 429.116 119.633 429.376 120.291 429.376C120.947 429.376 121.576 429.116 122.039 428.652L145.063 405.629L168.087 428.652C168.551 429.117 169.179 429.376 169.835 429.376C170.492 429.376 171.12 429.116 171.584 428.652L175.081 425.155C176.047 424.189 176.047 422.625 175.081 421.659L152.056 398.636L175.081 375.612C175.544 375.148 175.805 374.519 175.805 373.863C175.805 373.519 175.724 373.184 175.587 372.872C175.983 371.969 175.82 370.879 175.081 370.14L152.056 347.116L175.081 324.092C175.82 323.353 175.983 322.264 175.587 321.36C175.724 321.049 175.805 320.715 175.805 320.369C175.805 319.713 175.544 319.084 175.081 318.621L152.056 295.597L175.081 272.575C175.544 272.111 175.805 271.48 175.805 270.825C175.805 270.479 175.724 270.145 175.587 269.836C175.983 268.929 175.82 267.843 175.081 267.101L152.056 244.08L175.081 221.055C175.544 220.591 175.805 219.963 175.805 219.307C175.805 218.961 175.724 218.627 175.587 218.316C175.983 217.413 175.82 216.323 175.081 215.584L152.056 192.56L175.081 169.536C175.82 168.797 175.983 167.708 175.587 166.804C175.724 166.493 175.805 166.159 175.805 165.813C175.805 165.157 175.544 164.528 175.081 164.065Z" fill="#3F8BC9"/>
<path d="M112.915 99.2079V440.469H122.806V99.2079H112.915Z" fill="#6CADEF"/>
<path d="M167.319 99.2079V440.469H177.211V99.2079H167.319Z" fill="#6CADEF"/>
<path d="M194.108 84.2666H99.314C97.9469 84.2666 96.8412 85.3746 96.8412 86.74C96.8412 99.4666 107.194 109.821 119.92 109.821H173.501C186.228 109.821 196.581 99.4666 196.581 86.74C196.581 85.3746 195.475 84.2666 194.108 84.2666Z" fill="#6CADEF"/>
<path d="M124.374 -0.576233C109.296 -0.576233 97.025 11.6931 97.025 26.7718C97.025 41.8531 109.296 54.1211 124.374 54.1211C139.453 54.1211 151.723 41.8531 151.723 26.7718C151.723 11.6931 139.453 -0.576233 124.374 -0.576233Z" fill="#6CADEF"/>
<path d="M142.383 22.1026C142.383 32.0493 134.319 40.1133 124.372 40.1133C114.426 40.1133 106.364 32.0493 106.364 22.1026C106.364 12.1573 114.426 4.09326 124.372 4.09326C134.319 4.09326 142.383 12.1573 142.383 22.1026Z" fill="#3F8BC9"/>
<path d="M124.372 29.1064C123.267 29.1064 122.371 28.2104 122.371 27.1064V15.7664C122.371 14.6611 123.267 13.7651 124.372 13.7651C125.478 13.7651 126.374 14.6611 126.374 15.7664V27.1064C126.374 28.2104 125.478 29.1064 124.372 29.1064Z" fill="#6CADEF"/>
<path d="M131.376 18.101C131.376 21.969 128.241 25.105 124.372 25.105C120.505 25.105 117.369 21.969 117.369 18.101C117.369 14.233 120.505 11.097 124.372 11.097C128.241 11.097 131.376 14.233 131.376 18.101Z" fill="#E6F5FF"/>
<path d="M117.86 117.083C116.973 117.083 116.252 116.361 116.252 115.473C116.252 114.584 116.973 113.864 117.86 113.864C118.75 113.864 119.47 114.584 119.47 115.473C119.47 116.361 118.75 117.083 117.86 117.083Z" fill="#3F8BC9"/>
<path d="M117.86 126.917C116.973 126.917 116.252 126.196 116.252 125.306C116.252 124.418 116.973 123.698 117.86 123.698C118.75 123.698 119.47 124.418 119.47 125.306C119.47 126.196 118.75 126.917 117.86 126.917Z" fill="#3F8BC9"/>
<path d="M117.86 136.75C116.973 136.75 116.252 136.031 116.252 135.141C116.252 134.252 116.973 133.532 117.86 133.532C118.75 133.532 119.47 134.252 119.47 135.141C119.47 136.031 118.75 136.75 117.86 136.75Z" fill="#3F8BC9"/>
<path d="M117.86 146.584C116.973 146.584 116.252 145.864 116.252 144.976C116.252 144.087 116.973 143.367 117.86 143.367C118.75 143.367 119.47 144.087 119.47 144.976C119.47 145.864 118.75 146.584 117.86 146.584Z" fill="#3F8BC9"/>
<path d="M117.86 156.418C116.973 156.418 116.252 155.698 116.252 154.809C116.252 153.921 116.973 153.2 117.86 153.2C118.75 153.2 119.47 153.921 119.47 154.809C119.47 155.698 118.75 156.418 117.86 156.418Z" fill="#3F8BC9"/>
<path d="M117.86 166.253C116.973 166.253 116.252 165.532 116.252 164.644C116.252 163.754 116.973 163.034 117.86 163.034C118.75 163.034 119.47 163.754 119.47 164.644C119.47 165.532 118.75 166.253 117.86 166.253Z" fill="#3F8BC9"/>
<path d="M117.86 176.086C116.973 176.086 116.252 175.366 116.252 174.477C116.252 173.589 116.973 172.868 117.86 172.868C118.75 172.868 119.47 173.589 119.47 174.477C119.47 175.366 118.75 176.086 117.86 176.086Z" fill="#3F8BC9"/>
<path d="M117.86 185.921C116.973 185.921 116.252 185.2 116.252 184.312C116.252 183.422 116.973 182.702 117.86 182.702C118.75 182.702 119.47 183.422 119.47 184.312C119.47 185.2 118.75 185.921 117.86 185.921Z" fill="#3F8BC9"/>
<path d="M117.86 195.754C116.973 195.754 116.252 195.034 116.252 194.145C116.252 193.257 116.973 192.536 117.86 192.536C118.75 192.536 119.47 193.257 119.47 194.145C119.47 195.034 118.75 195.754 117.86 195.754Z" fill="#3F8BC9"/>
<path d="M117.86 205.488C116.973 205.488 116.252 204.768 116.252 203.88C116.252 202.99 116.973 202.27 117.86 202.27C118.75 202.27 119.47 202.99 119.47 203.88C119.47 204.768 118.75 205.488 117.86 205.488Z" fill="#3F8BC9"/>
<path d="M117.86 215.322C116.973 215.322 116.252 214.602 116.252 213.713C116.252 212.825 116.973 212.104 117.86 212.104C118.75 212.104 119.47 212.825 119.47 213.713C119.47 214.602 118.75 215.322 117.86 215.322Z" fill="#3F8BC9"/>
<path d="M117.86 225.157C116.973 225.157 116.252 224.436 116.252 223.548C116.252 222.659 116.973 221.939 117.86 221.939C118.75 221.939 119.47 222.659 119.47 223.548C119.47 224.436 118.75 225.157 117.86 225.157Z" fill="#3F8BC9"/>
<path d="M117.86 234.99C116.973 234.99 116.252 234.27 116.252 233.381C116.252 232.493 116.973 231.772 117.86 231.772C118.75 231.772 119.47 232.493 119.47 233.381C119.47 234.27 118.75 234.99 117.86 234.99Z" fill="#3F8BC9"/>
<path d="M117.86 244.825C116.973 244.825 116.252 244.104 116.252 243.216C116.252 242.327 116.973 241.607 117.86 241.607C118.75 241.607 119.47 242.327 119.47 243.216C119.47 244.104 118.75 244.825 117.86 244.825Z" fill="#3F8BC9"/>
<path d="M117.86 254.659C116.973 254.659 116.252 253.939 116.252 253.049C116.252 252.161 116.973 251.441 117.86 251.441C118.75 251.441 119.47 252.161 119.47 253.049C119.47 253.939 118.75 254.659 117.86 254.659Z" fill="#3F8BC9"/>
<path d="M117.86 264.493C116.973 264.493 116.252 263.773 116.252 262.884C116.252 261.995 116.973 261.275 117.86 261.275C118.75 261.275 119.47 261.995 119.47 262.884C119.47 263.773 118.75 264.493 117.86 264.493Z" fill="#3F8BC9"/>
<path d="M117.86 274.327C116.973 274.327 116.252 273.607 116.252 272.719C116.252 271.829 116.973 271.109 117.86 271.109C118.75 271.109 119.47 271.829 119.47 272.719C119.47 273.607 118.75 274.327 117.86 274.327Z" fill="#3F8BC9"/>
<path d="M117.86 284.061C116.973 284.061 116.252 283.341 116.252 282.452C116.252 281.562 116.973 280.842 117.86 280.842C118.75 280.842 119.47 281.562 119.47 282.452C119.47 283.341 118.75 284.061 117.86 284.061Z" fill="#3F8BC9"/>
<path d="M117.86 293.895C116.973 293.895 116.252 293.175 116.252 292.287C116.252 291.397 116.973 290.677 117.86 290.677C118.75 290.677 119.47 291.397 119.47 292.287C119.47 293.175 118.75 293.895 117.86 293.895Z" fill="#3F8BC9"/>
<path d="M117.86 303.729C116.973 303.729 116.252 303.009 116.252 302.12C116.252 301.232 116.973 300.51 117.86 300.51C118.75 300.51 119.47 301.232 119.47 302.12C119.47 303.009 118.75 303.729 117.86 303.729Z" fill="#3F8BC9"/>
<path d="M117.86 313.564C116.973 313.564 116.252 312.843 116.252 311.955C116.252 311.065 116.973 310.345 117.86 310.345C118.75 310.345 119.47 311.065 119.47 311.955C119.47 312.843 118.75 313.564 117.86 313.564Z" fill="#3F8BC9"/>
<path d="M117.86 323.397C116.973 323.397 116.252 322.677 116.252 321.788C116.252 320.9 116.973 320.178 117.86 320.178C118.75 320.178 119.47 320.9 119.47 321.788C119.47 322.677 118.75 323.397 117.86 323.397Z" fill="#3F8BC9"/>
<path d="M117.86 333.232C116.973 333.232 116.252 332.511 116.252 331.623C116.252 330.733 116.973 330.013 117.86 330.013C118.75 330.013 119.47 330.733 119.47 331.623C119.47 332.511 118.75 333.232 117.86 333.232Z" fill="#3F8BC9"/>
<path d="M117.86 343.065C116.973 343.065 116.252 342.345 116.252 341.456C116.252 340.568 116.973 339.848 117.86 339.848C118.75 339.848 119.47 340.568 119.47 341.456C119.47 342.345 118.75 343.065 117.86 343.065Z" fill="#3F8BC9"/>
<path d="M117.86 352.9C116.973 352.9 116.252 352.18 116.252 351.291C116.252 350.401 116.973 349.681 117.86 349.681C118.75 349.681 119.47 350.401 119.47 351.291C119.47 352.18 118.75 352.9 117.86 352.9Z" fill="#3F8BC9"/>
<path d="M117.86 362.633C116.973 362.633 116.252 361.913 116.252 361.024C116.252 360.136 116.973 359.415 117.86 359.415C118.75 359.415 119.47 360.136 119.47 361.024C119.47 361.913 118.75 362.633 117.86 362.633Z" fill="#3F8BC9"/>
<path d="M172.2 117.083C171.312 117.083 170.591 116.361 170.591 115.473C170.591 114.584 171.312 113.864 172.2 113.864C173.089 113.864 173.809 114.584 173.809 115.473C173.809 116.361 173.089 117.083 172.2 117.083Z" fill="#3F8BC9"/>
<path d="M172.2 126.917C171.312 126.917 170.591 126.196 170.591 125.306C170.591 124.418 171.312 123.698 172.2 123.698C173.089 123.698 173.809 124.418 173.809 125.306C173.809 126.196 173.089 126.917 172.2 126.917Z" fill="#3F8BC9"/>
<path d="M172.2 136.75C171.312 136.75 170.591 136.031 170.591 135.141C170.591 134.252 171.312 133.532 172.2 133.532C173.089 133.532 173.809 134.252 173.809 135.141C173.809 136.031 173.089 136.75 172.2 136.75Z" fill="#3F8BC9"/>
<path d="M172.2 146.584C171.312 146.584 170.591 145.864 170.591 144.976C170.591 144.087 171.312 143.367 172.2 143.367C173.089 143.367 173.809 144.087 173.809 144.976C173.809 145.864 173.089 146.584 172.2 146.584Z" fill="#3F8BC9"/>
<path d="M172.2 156.418C171.312 156.418 170.591 155.698 170.591 154.809C170.591 153.921 171.312 153.2 172.2 153.2C173.089 153.2 173.809 153.921 173.809 154.809C173.809 155.698 173.089 156.418 172.2 156.418Z" fill="#3F8BC9"/>
<path d="M172.2 166.253C171.312 166.253 170.591 165.532 170.591 164.644C170.591 163.754 171.312 163.034 172.2 163.034C173.089 163.034 173.809 163.754 173.809 164.644C173.809 165.532 173.089 166.253 172.2 166.253Z" fill="#3F8BC9"/>
<path d="M172.2 176.086C171.312 176.086 170.591 175.366 170.591 174.477C170.591 173.589 171.312 172.868 172.2 172.868C173.089 172.868 173.809 173.589 173.809 174.477C173.809 175.366 173.089 176.086 172.2 176.086Z" fill="#3F8BC9"/>
<path d="M172.2 185.921C171.312 185.921 170.591 185.2 170.591 184.312C170.591 183.422 171.312 182.702 172.2 182.702C173.089 182.702 173.809 183.422 173.809 184.312C173.809 185.2 173.089 185.921 172.2 185.921Z" fill="#3F8BC9"/>
<path d="M172.2 195.754C171.312 195.754 170.591 195.034 170.591 194.145C170.591 193.257 171.312 192.536 172.2 192.536C173.089 192.536 173.809 193.257 173.809 194.145C173.809 195.034 173.089 195.754 172.2 195.754Z" fill="#3F8BC9"/>
<path d="M172.2 205.488C171.312 205.488 170.591 204.768 170.591 203.88C170.591 202.99 171.312 202.27 172.2 202.27C173.089 202.27 173.809 202.99 173.809 203.88C173.809 204.768 173.089 205.488 172.2 205.488Z" fill="#3F8BC9"/>
<path d="M172.2 215.322C171.312 215.322 170.591 214.602 170.591 213.713C170.591 212.825 171.312 212.104 172.2 212.104C173.089 212.104 173.809 212.825 173.809 213.713C173.809 214.602 173.089 215.322 172.2 215.322Z" fill="#3F8BC9"/>
<path d="M172.2 225.157C171.312 225.157 170.591 224.436 170.591 223.548C170.591 222.659 171.312 221.939 172.2 221.939C173.089 221.939 173.809 222.659 173.809 223.548C173.809 224.436 173.089 225.157 172.2 225.157Z" fill="#3F8BC9"/>
<path d="M172.2 234.99C171.312 234.99 170.591 234.27 170.591 233.381C170.591 232.493 171.312 231.772 172.2 231.772C173.089 231.772 173.809 232.493 173.809 233.381C173.809 234.27 173.089 234.99 172.2 234.99Z" fill="#3F8BC9"/>
<path d="M172.2 244.825C171.312 244.825 170.591 244.104 170.591 243.216C170.591 242.327 171.312 241.607 172.2 241.607C173.089 241.607 173.809 242.327 173.809 243.216C173.809 244.104 173.089 244.825 172.2 244.825Z" fill="#3F8BC9"/>
<path d="M172.2 254.659C171.312 254.659 170.591 253.939 170.591 253.049C170.591 252.161 171.312 251.441 172.2 251.441C173.089 251.441 173.809 252.161 173.809 253.049C173.809 253.939 173.089 254.659 172.2 254.659Z" fill="#3F8BC9"/>
<path d="M172.2 264.493C171.312 264.493 170.591 263.773 170.591 262.884C170.591 261.995 171.312 261.275 172.2 261.275C173.089 261.275 173.809 261.995 173.809 262.884C173.809 263.773 173.089 264.493 172.2 264.493Z" fill="#3F8BC9"/>
<path d="M172.2 274.327C171.312 274.327 170.591 273.607 170.591 272.719C170.591 271.829 171.312 271.109 172.2 271.109C173.089 271.109 173.809 271.829 173.809 272.719C173.809 273.607 173.089 274.327 172.2 274.327Z" fill="#3F8BC9"/>
<path d="M172.2 284.061C171.312 284.061 170.591 283.341 170.591 282.452C170.591 281.562 171.312 280.842 172.2 280.842C173.089 280.842 173.809 281.562 173.809 282.452C173.809 283.341 173.089 284.061 172.2 284.061Z" fill="#3F8BC9"/>
<path d="M172.2 293.895C171.312 293.895 170.591 293.175 170.591 292.287C170.591 291.397 171.312 290.677 172.2 290.677C173.089 290.677 173.809 291.397 173.809 292.287C173.809 293.175 173.089 293.895 172.2 293.895Z" fill="#3F8BC9"/>
<path d="M172.2 303.729C171.312 303.729 170.591 303.009 170.591 302.12C170.591 301.232 171.312 300.51 172.2 300.51C173.089 300.51 173.809 301.232 173.809 302.12C173.809 303.009 173.089 303.729 172.2 303.729Z" fill="#3F8BC9"/>
<path d="M172.2 313.564C171.312 313.564 170.591 312.843 170.591 311.955C170.591 311.065 171.312 310.345 172.2 310.345C173.089 310.345 173.809 311.065 173.809 311.955C173.809 312.843 173.089 313.564 172.2 313.564Z" fill="#3F8BC9"/>
<path d="M172.2 323.397C171.312 323.397 170.591 322.677 170.591 321.788C170.591 320.9 171.312 320.178 172.2 320.178C173.089 320.178 173.809 320.9 173.809 321.788C173.809 322.677 173.089 323.397 172.2 323.397Z" fill="#3F8BC9"/>
<path d="M172.2 333.232C171.312 333.232 170.591 332.511 170.591 331.623C170.591 330.733 171.312 330.013 172.2 330.013C173.089 330.013 173.809 330.733 173.809 331.623C173.809 332.511 173.089 333.232 172.2 333.232Z" fill="#3F8BC9"/>
<path d="M172.2 343.065C171.312 343.065 170.591 342.345 170.591 341.456C170.591 340.568 171.312 339.848 172.2 339.848C173.089 339.848 173.809 340.568 173.809 341.456C173.809 342.345 173.089 343.065 172.2 343.065Z" fill="#3F8BC9"/>
<path d="M172.2 352.9C171.312 352.9 170.591 352.18 170.591 351.291C170.591 350.401 171.312 349.681 172.2 349.681C173.089 349.681 173.809 350.401 173.809 351.291C173.809 352.18 173.089 352.9 172.2 352.9Z" fill="#3F8BC9"/>
<path d="M172.2 362.633C171.312 362.633 170.591 361.913 170.591 361.024C170.591 360.136 171.312 359.415 172.2 359.415C173.089 359.415 173.809 360.136 173.809 361.024C173.809 361.913 173.089 362.633 172.2 362.633Z" fill="#3F8BC9"/>
<path d="M384.417 314.448V439.484C384.417 441.574 382.723 443.268 380.633 443.268H291.595C289.505 443.268 287.811 441.574 287.811 439.484V314.448C287.811 312.359 289.505 310.663 291.595 310.663H380.633C382.723 310.663 384.417 312.359 384.417 314.448Z" fill="#F26C6D"/>
<path d="M299.639 439.484V314.447C299.639 312.359 300.917 310.663 302.496 310.663H291.595C289.505 310.663 287.811 312.359 287.811 314.447V439.484C287.811 441.573 289.505 443.267 291.595 443.267H302.496C300.917 443.267 299.639 441.573 299.639 439.484Z" fill="#D64C52"/>
<path d="M380.633 310.663H369.732C371.309 310.663 372.588 312.359 372.588 314.447V439.484C372.588 441.573 371.309 443.267 369.732 443.267H380.633C382.723 443.267 384.417 441.573 384.417 439.484V314.447C384.417 312.359 382.723 310.663 380.633 310.663Z" fill="#FFA9AD"/>
<path d="M296.599 319.988C296.599 320.877 295.879 321.597 294.989 321.597C294.101 321.597 293.38 320.877 293.38 319.988C293.38 319.1 294.101 318.38 294.989 318.38C295.879 318.38 296.599 319.1 296.599 319.988Z" fill="#D64C52"/>
<path d="M306.433 319.988C306.433 320.877 305.712 321.597 304.824 321.597C303.935 321.597 303.215 320.877 303.215 319.988C303.215 319.1 303.935 318.38 304.824 318.38C305.712 318.38 306.433 319.1 306.433 319.988Z" fill="#D64C52"/>
<path d="M316.267 319.988C316.267 320.877 315.547 321.597 314.657 321.597C313.769 321.597 313.048 320.877 313.048 319.988C313.048 319.1 313.769 318.38 314.657 318.38C315.547 318.38 316.267 319.1 316.267 319.988Z" fill="#D64C52"/>
<path d="M326.101 319.988C326.101 320.877 325.38 321.597 324.492 321.597C323.603 321.597 322.883 320.877 322.883 319.988C322.883 319.1 323.603 318.38 324.492 318.38C325.38 318.38 326.101 319.1 326.101 319.988Z" fill="#D64C52"/>
<path d="M335.935 319.988C335.935 320.877 335.215 321.597 334.325 321.597C333.437 321.597 332.717 320.877 332.717 319.988C332.717 319.1 333.437 318.38 334.325 318.38C335.215 318.38 335.935 319.1 335.935 319.988Z" fill="#D64C52"/>
<path d="M345.769 319.988C345.769 320.877 345.049 321.597 344.16 321.597C343.271 321.597 342.551 320.877 342.551 319.988C342.551 319.1 343.271 318.38 344.16 318.38C345.049 318.38 345.769 319.1 345.769 319.988Z" fill="#D64C52"/>
<path d="M355.603 319.988C355.603 320.877 354.883 321.597 353.995 321.597C353.105 321.597 352.385 320.877 352.385 319.988C352.385 319.1 353.105 318.38 353.995 318.38C354.883 318.38 355.603 319.1 355.603 319.988Z" fill="#D64C52"/>
<path d="M365.437 319.988C365.437 320.877 364.717 321.597 363.828 321.597C362.94 321.597 362.219 320.877 362.219 319.988C362.219 319.1 362.94 318.38 363.828 318.38C364.717 318.38 365.437 319.1 365.437 319.988Z" fill="#D64C52"/>
<path d="M375.272 319.988C375.272 320.877 374.551 321.597 373.663 321.597C372.773 321.597 372.053 320.877 372.053 319.988C372.053 319.1 372.773 318.38 373.663 318.38C374.551 318.38 375.272 319.1 375.272 319.988Z" fill="#D64C52"/>
<path d="M287.811 347.908H384.417" stroke="#D64C52" stroke-width="2.14561" stroke-miterlimit="10"/>
<path d="M287.803 354.345H384.4" stroke="#D64C52" stroke-width="2.14561" stroke-miterlimit="10"/>
<path d="M296.599 341.649C296.599 342.538 295.879 343.258 294.989 343.258C294.101 343.258 293.38 342.538 293.38 341.649C293.38 340.761 294.101 340.04 294.989 340.04C295.879 340.04 296.599 340.761 296.599 341.649Z" fill="#D64C52"/>
<path d="M306.433 341.649C306.433 342.538 305.712 343.258 304.824 343.258C303.935 343.258 303.215 342.538 303.215 341.649C303.215 340.761 303.935 340.04 304.824 340.04C305.712 340.04 306.433 340.761 306.433 341.649Z" fill="#D64C52"/>
<path d="M316.267 341.649C316.267 342.538 315.547 343.258 314.657 343.258C313.769 343.258 313.048 342.538 313.048 341.649C313.048 340.761 313.769 340.04 314.657 340.04C315.547 340.04 316.267 340.761 316.267 341.649Z" fill="#D64C52"/>
<path d="M326.101 341.649C326.101 342.538 325.38 343.258 324.492 343.258C323.603 343.258 322.883 342.538 322.883 341.649C322.883 340.761 323.603 340.04 324.492 340.04C325.38 340.04 326.101 340.761 326.101 341.649Z" fill="#D64C52"/>
<path d="M335.935 341.649C335.935 342.538 335.215 343.258 334.325 343.258C333.437 343.258 332.717 342.538 332.717 341.649C332.717 340.761 333.437 340.04 334.325 340.04C335.215 340.04 335.935 340.761 335.935 341.649Z" fill="#D64C52"/>
<path d="M345.769 341.649C345.769 342.538 345.049 343.258 344.16 343.258C343.271 343.258 342.551 342.538 342.551 341.649C342.551 340.761 343.271 340.04 344.16 340.04C345.049 340.04 345.769 340.761 345.769 341.649Z" fill="#D64C52"/>
<path d="M355.603 341.649C355.603 342.538 354.883 343.258 353.995 343.258C353.105 343.258 352.385 342.538 352.385 341.649C352.385 340.761 353.105 340.04 353.995 340.04C354.883 340.04 355.603 340.761 355.603 341.649Z" fill="#D64C52"/>
<path d="M365.437 341.649C365.437 342.538 364.717 343.258 363.828 343.258C362.94 343.258 362.219 342.538 362.219 341.649C362.219 340.761 362.94 340.04 363.828 340.04C364.717 340.04 365.437 340.761 365.437 341.649Z" fill="#D64C52"/>
<path d="M375.272 341.649C375.272 342.538 374.551 343.258 373.663 343.258C372.773 343.258 372.053 342.538 372.053 341.649C372.053 340.761 372.773 340.04 373.663 340.04C374.551 340.04 375.272 340.761 375.272 341.649Z" fill="#D64C52"/>
<path d="M296.599 360.603C296.599 361.492 295.879 362.212 294.989 362.212C294.101 362.212 293.38 361.492 293.38 360.603C293.38 359.715 294.101 358.993 294.989 358.993C295.879 358.993 296.599 359.715 296.599 360.603Z" fill="#D64C52"/>
<path d="M306.433 360.603C306.433 361.492 305.712 362.212 304.824 362.212C303.935 362.212 303.215 361.492 303.215 360.603C303.215 359.715 303.935 358.993 304.824 358.993C305.712 358.993 306.433 359.715 306.433 360.603Z" fill="#D64C52"/>
<path d="M316.267 360.603C316.267 361.492 315.547 362.212 314.657 362.212C313.769 362.212 313.048 361.492 313.048 360.603C313.048 359.715 313.769 358.993 314.657 358.993C315.547 358.993 316.267 359.715 316.267 360.603Z" fill="#D64C52"/>
<path d="M326.101 360.603C326.101 361.492 325.38 362.212 324.492 362.212C323.603 362.212 322.883 361.492 322.883 360.603C322.883 359.715 323.603 358.993 324.492 358.993C325.38 358.993 326.101 359.715 326.101 360.603Z" fill="#D64C52"/>
<path d="M335.935 360.603C335.935 361.492 335.215 362.212 334.325 362.212C333.437 362.212 332.717 361.492 332.717 360.603C332.717 359.715 333.437 358.993 334.325 358.993C335.215 358.993 335.935 359.715 335.935 360.603Z" fill="#D64C52"/>
<path d="M345.769 360.603C345.769 361.492 345.049 362.212 344.16 362.212C343.271 362.212 342.551 361.492 342.551 360.603C342.551 359.715 343.271 358.993 344.16 358.993C345.049 358.993 345.769 359.715 345.769 360.603Z" fill="#D64C52"/>
<path d="M355.603 360.603C355.603 361.492 354.883 362.212 353.995 362.212C353.105 362.212 352.385 361.492 352.385 360.603C352.385 359.715 353.105 358.993 353.995 358.993C354.883 358.993 355.603 359.715 355.603 360.603Z" fill="#D64C52"/>
<path d="M365.437 360.603C365.437 361.492 364.717 362.212 363.828 362.212C362.94 362.212 362.219 361.492 362.219 360.603C362.219 359.715 362.94 358.993 363.828 358.993C364.717 358.993 365.437 359.715 365.437 360.603Z" fill="#D64C52"/>
<path d="M375.272 360.603C375.272 361.492 374.551 362.212 373.663 362.212C372.773 362.212 372.053 361.492 372.053 360.603C372.053 359.715 372.773 358.993 373.663 358.993C374.551 358.993 375.272 359.715 375.272 360.603Z" fill="#D64C52"/>
<path d="M392.193 59.4026L329.875 118.353C328.611 119.548 328.985 121.647 330.584 122.333L371.599 139.908L412.612 157.484C414.212 158.169 415.989 156.993 415.983 155.253L415.689 69.4719C415.647 57.2732 401.055 51.0199 392.193 59.4026Z" fill="#EFB06C"/>
<path d="M415.983 155.252L415.689 69.4717C415.668 63.373 412.009 58.7597 407.248 56.7197C410.844 58.2597 413.336 62.373 412.812 68.2384L405.441 150.734C405.292 152.409 403.777 153.698 402.569 153.181L412.612 157.485C414.212 158.17 415.989 156.993 415.983 155.252Z" fill="#FFD4A9"/>
<mask id="mask0_530_6104" style="mask-type:luminance" maskUnits="userSpaceOnUse" x="329" y="55" width="87" height="103">
<path d="M392.193 59.4026L329.875 118.353C328.611 119.548 328.985 121.647 330.584 122.333L371.599 139.908L412.612 157.484C414.212 158.169 415.989 156.993 415.983 155.253L415.689 69.4719C415.647 57.2732 401.055 51.0199 392.193 59.4026Z" fill="white"/>
</mask>
<g mask="url(#mask0_530_6104)">
<path d="M359.948 87.6573L417.469 112.307" stroke="#CE8B49" stroke-width="2.14561" stroke-miterlimit="10" stroke-linecap="round"/>
<path d="M379.248 128.415L416.391 144.331" stroke="#CE8B49" stroke-width="2.14561" stroke-miterlimit="10" stroke-linecap="round"/>
<path d="M350.651 116.16L371.688 125.175" stroke="#CE8B49" stroke-width="2.14561" stroke-miterlimit="10" stroke-linecap="round"/>
<path d="M337.504 110.525L347.859 114.962" stroke="#CE8B49" stroke-width="2.14561" stroke-miterlimit="10" stroke-linecap="round"/>
</g>
<path d="M375.883 113.556L384.349 110.168" stroke="#CE8B49" stroke-width="2.14561" stroke-miterlimit="10" stroke-linecap="round"/>
<path d="M381.8 116.09L390.265 112.704" stroke="#CE8B49" stroke-width="2.14561" stroke-miterlimit="10" stroke-linecap="round"/>
<path d="M392.195 59.4025L329.875 118.352C328.612 119.548 328.984 121.647 330.584 122.333L340.628 126.637C339.419 126.119 339.309 124.133 340.417 122.869L395.069 60.6345C398.956 56.2105 403.652 55.1785 407.248 56.7199C402.487 54.6799 396.624 55.2119 392.195 59.4025Z" fill="#CE8B49"/>
<path d="M415.076 132.115C415.351 132.215 415.628 132.291 415.905 132.345L415.865 121.156C415.335 121.268 414.824 121.444 414.345 121.697L411.232 119.747C410.652 119.381 409.887 119.557 409.523 120.139C409.157 120.719 409.333 121.484 409.915 121.848L412.396 123.405C412.263 123.588 412.139 123.777 412.027 123.98L408.345 123.139C407.677 122.984 407.012 123.403 406.86 124.071C406.705 124.737 407.124 125.403 407.792 125.556L411.336 126.367C411.312 126.725 411.32 127.079 411.363 127.428L409.204 127.28C408.521 127.233 407.927 127.749 407.881 128.433C407.835 129.116 408.352 129.709 409.035 129.756L412.323 129.98C412.976 130.929 413.911 131.695 415.076 132.115Z" fill="#CE8B49"/>
<path d="M415.405 120.045L415.865 121.026L415.857 118.298C415.327 118.704 415.111 119.417 415.405 120.045Z" fill="#CE8B49"/>
<path d="M264.715 306.879V181.843C264.715 179.753 266.409 178.059 268.499 178.059H357.535C359.625 178.059 361.32 179.753 361.32 181.843V306.879C361.32 308.969 359.625 310.663 357.535 310.663H268.499C266.409 310.663 264.715 308.969 264.715 306.879Z" fill="#F26C6D"/>
<path d="M276.541 306.88V181.843C276.541 179.753 277.821 178.059 279.4 178.059H268.499C266.408 178.059 264.713 179.753 264.713 181.843V306.88C264.713 308.971 266.408 310.663 268.499 310.663H279.4C277.821 310.663 276.541 308.971 276.541 306.88Z" fill="#D64C52"/>
<path d="M357.536 178.059H346.636C348.213 178.059 349.492 179.753 349.492 181.843V306.88C349.492 308.971 348.213 310.663 346.636 310.663H357.536C359.627 310.663 361.32 308.971 361.32 306.88V181.843C361.32 179.753 359.627 178.059 357.536 178.059Z" fill="#FFA9AD"/>
<path d="M320.973 202.469H305.06V191.561H320.973V202.469Z" stroke="#D64C52" stroke-width="2.14561" stroke-miterlimit="10" stroke-linecap="round" stroke-linejoin="round"/>
<path d="M309.529 199.086V194.944" stroke="#D64C52" stroke-width="2.14561" stroke-miterlimit="10" stroke-linecap="round"/>
<path d="M313.017 199.086V194.944" stroke="#D64C52" stroke-width="2.14561" stroke-miterlimit="10" stroke-linecap="round"/>
<path d="M316.504 199.086V194.944" stroke="#D64C52" stroke-width="2.14561" stroke-miterlimit="10" stroke-linecap="round"/>
<path d="M273.503 301.036C273.503 301.924 272.781 302.644 271.893 302.644C271.004 302.644 270.284 301.924 270.284 301.036C270.284 300.147 271.004 299.427 271.893 299.427C272.781 299.427 273.503 300.147 273.503 301.036Z" fill="#D64C52"/>
<path d="M283.336 301.036C283.336 301.924 282.616 302.644 281.727 302.644C280.839 302.644 280.117 301.924 280.117 301.036C280.117 300.147 280.839 299.427 281.727 299.427C282.616 299.427 283.336 300.147 283.336 301.036Z" fill="#D64C52"/>
<path d="M293.171 301.036C293.171 301.924 292.449 302.644 291.561 302.644C290.672 302.644 289.952 301.924 289.952 301.036C289.952 300.147 290.672 299.427 291.561 299.427C292.449 299.427 293.171 300.147 293.171 301.036Z" fill="#D64C52"/>
<path d="M303.004 301.036C303.004 301.924 302.284 302.644 301.395 302.644C300.507 302.644 299.785 301.924 299.785 301.036C299.785 300.147 300.507 299.427 301.395 299.427C302.284 299.427 303.004 300.147 303.004 301.036Z" fill="#D64C52"/>
<path d="M312.839 301.036C312.839 301.924 312.117 302.644 311.229 302.644C310.34 302.644 309.62 301.924 309.62 301.036C309.62 300.147 310.34 299.427 311.229 299.427C312.117 299.427 312.839 300.147 312.839 301.036Z" fill="#D64C52"/>
<path d="M322.672 301.036C322.672 301.924 321.952 302.644 321.064 302.644C320.175 302.644 319.455 301.924 319.455 301.036C319.455 300.147 320.175 299.427 321.064 299.427C321.952 299.427 322.672 300.147 322.672 301.036Z" fill="#D64C52"/>
<path d="M332.507 301.036C332.507 301.924 331.787 302.644 330.897 302.644C330.009 302.644 329.288 301.924 329.288 301.036C329.288 300.147 330.009 299.427 330.897 299.427C331.787 299.427 332.507 300.147 332.507 301.036Z" fill="#D64C52"/>
<path d="M342.341 301.036C342.341 301.924 341.62 302.644 340.732 302.644C339.843 302.644 339.123 301.924 339.123 301.036C339.123 300.147 339.843 299.427 340.732 299.427C341.62 299.427 342.341 300.147 342.341 301.036Z" fill="#D64C52"/>
<path d="M352.175 301.036C352.175 301.924 351.455 302.644 350.565 302.644C349.677 302.644 348.956 301.924 348.956 301.036C348.956 300.147 349.677 299.427 350.565 299.427C351.455 299.427 352.175 300.147 352.175 301.036Z" fill="#D64C52"/>
<path d="M344.74 246.586C344.74 264.106 330.537 278.309 313.017 278.309C295.497 278.309 281.295 264.106 281.295 246.586C281.295 229.066 295.497 214.864 313.017 214.864C330.537 214.864 344.74 229.066 344.74 246.586Z" fill="#6CADEF"/>
<path d="M313.019 271.76C299.137 271.76 287.843 260.468 287.843 246.585C287.843 232.705 299.137 221.413 313.019 221.413C326.9 221.413 338.191 232.705 338.191 246.585C338.191 260.468 326.9 271.76 313.019 271.76Z" fill="#A1D5FF"/>
<path d="M295.695 228.365L331.239 263.909C332.649 262.423 333.883 260.772 334.903 258.979L300.624 224.701C298.832 225.721 297.181 226.955 295.695 228.365Z" fill="#E6F5FF"/>
<path d="M304.483 222.933L336.669 255.12C337.484 252.868 337.983 250.473 338.12 247.977L311.625 221.484C309.131 221.621 306.735 222.118 304.483 222.933Z" fill="#E6F5FF"/>
<path d="M313.019 271.76C299.137 271.76 287.843 260.468 287.843 246.585C287.843 232.705 299.137 221.413 313.019 221.413C326.9 221.413 338.191 232.705 338.191 246.585C338.191 260.468 326.9 271.76 313.019 271.76Z" stroke="#F26C6D" stroke-width="2.47291" stroke-miterlimit="10"/>
<path d="M268.616 250.419C269.211 250.121 269.577 249.48 269.451 248.795C269.3 247.963 268.5 247.412 267.668 247.564L265.861 247.895L266.637 246.964C267.223 246.259 267.127 245.215 266.423 244.629C265.927 244.217 265.269 244.161 264.715 244.397V260.513C265.029 260.477 265.348 260.445 265.664 260.357C268.925 259.456 270.839 256.081 269.937 252.82C269.681 251.895 269.211 251.093 268.616 250.419Z" fill="#BC313C"/>
<path d="M264.713 192.029V201.353C264.728 201.266 264.764 201.189 264.763 201.097L264.729 196.31L266.472 194.565C267.083 193.948 267.08 192.952 266.463 192.34C265.987 191.868 265.291 191.772 264.713 192.029Z" fill="#BC313C"/>
<path d="M428.36 153.653H450.472V142.719H426.827L428.36 153.653Z" fill="#EFB06C"/>
<path d="M441.869 208.869H430.465V207.361L432.323 205.525C432.931 204.924 433.9 204.57 434.929 204.57H440.175C441.111 204.57 441.869 205.117 441.869 205.792V208.869Z" fill="#ACD9EA"/>
<path d="M435.328 204.724L442.548 208.916H445.871L437.109 144.88H427.139L435.328 204.724Z" fill="#EFB06C"/>
<path d="M434.809 205.051L443.105 208.624C443.501 208.795 443.96 208.612 444.131 208.216C444.301 207.82 444.119 207.361 443.723 207.192L435.425 203.619C435.031 203.448 434.572 203.632 434.403 204.027C434.232 204.421 434.415 204.881 434.809 205.051Z" fill="#EFB06C"/>
<path d="M439.403 153.653H450.472V142.719H426.827C427.705 148.989 433.071 153.653 439.403 153.653Z" fill="#FFD4A9"/>
<path d="M448.499 208.869H434.968V207.008L437.173 204.738C437.893 203.997 439.043 203.558 440.265 203.558H446.487C447.597 203.558 448.499 204.234 448.499 205.068V208.869Z" fill="#E6F5FF"/>
<path d="M440.503 203.547L447.532 208.916H450.472V142.719H440.503V203.547Z" fill="#FFD4A9"/>
<path d="M439.963 202.996L447.103 208.529C447.443 208.793 447.932 208.732 448.196 208.39C448.461 208.05 448.399 207.56 448.057 207.297L440.917 201.764C440.577 201.5 440.087 201.562 439.824 201.902C439.56 202.244 439.623 202.733 439.963 202.996Z" fill="#FFD4A9"/>
<path d="M419.268 73.9092C419.196 71.6358 417.695 69.7598 415.657 69.0745C415.661 69.2105 415.688 69.3345 415.689 69.4718L415.768 92.5278C418.188 91.9758 419.957 89.7785 419.876 87.2065L419.268 73.9092Z" fill="#D64C52"/>
<path d="M417.343 66.7601L417.217 63.7841C417.184 62.9841 416.509 62.3628 415.708 62.3974C415.028 62.4254 414.503 62.9281 414.375 63.5694C415.195 65.3174 415.681 67.2948 415.689 69.4721L415.711 75.8428C416.344 75.5374 416.933 75.1201 417.437 74.5721C419.493 72.3374 419.412 68.9214 417.343 66.7601Z" fill="#A24F46"/>
<path d="M434.967 101.164L418.937 84.9945C418.047 84.0878 416.909 83.5958 415.737 83.4705L415.783 96.8425L427.425 108.589C429.475 110.672 432.825 110.696 434.908 108.647C436.991 106.596 437.017 103.246 434.967 101.164Z" fill="#D64C52"/>
<path d="M428.464 144.06H448.705C450.141 144.06 451.305 142.896 451.305 141.46V102.981C451.305 98.7383 447.864 95.2969 443.621 95.2969H433.548C429.305 95.2969 425.863 98.7383 425.863 102.981V141.46C425.863 142.896 427.028 144.06 428.464 144.06Z" fill="#F26C6D"/>
<path d="M454.464 78.0558C454.464 87.4105 446.88 94.9932 437.527 94.9932C428.172 94.9932 420.588 87.4105 420.588 78.0558C420.588 68.7012 428.172 61.1185 437.527 61.1185C446.88 61.1185 454.464 68.7012 454.464 78.0558Z" fill="#32293E"/>
<path d="M435.944 104.015C438.552 104.015 440.667 101.9 440.667 99.292V82.8506H431.223V99.292C431.223 101.9 433.336 104.015 435.944 104.015Z" fill="#A24F46"/>
<path d="M432.783 97.085C436.533 97.0823 439.573 94.0383 439.569 90.2863L439.556 75.6797L433.436 75.685C429.312 75.689 425.973 79.0343 425.976 83.157L425.983 90.2996C425.987 94.0503 429.031 97.089 432.783 97.085Z" fill="#B26F57"/>
<path d="M436.717 83.2239C437.785 87.2866 441.045 90.1186 444 89.5506C446.955 88.9839 448.484 85.2306 447.417 81.1692C446.348 77.1092 443.087 74.2773 440.133 74.8439C437.179 75.4119 435.648 79.1639 436.717 83.2239Z" fill="#32293E"/>
<path d="M434.057 78.0852C434.253 75.8066 436.921 74.3399 440.016 74.8106C443.109 75.2826 445.457 77.5119 445.259 79.7906C445.063 82.0692 442.395 83.5346 439.303 83.0639C436.208 82.5932 433.861 80.3639 434.057 78.0852Z" fill="#32293E"/>
<path d="M438.427 90.168L439.809 90.1666C441.536 90.1653 442.933 88.764 442.932 87.0373C442.931 85.312 441.529 83.9133 439.804 83.9146C439.04 83.916 438.421 84.5346 438.421 85.2986L438.427 90.168Z" fill="#B26F57"/>
<path d="M438.363 87.0426C438.364 87.8386 439.012 88.4839 439.807 88.4839C440.604 88.4826 441.251 87.8359 441.249 87.0399C441.249 86.2426 440.601 85.5972 439.805 85.5986C439.009 85.5986 438.363 86.2452 438.363 87.0426Z" fill="#A24F46"/>
<path d="M432.285 86.6506L432.533 86.632C432.879 86.6066 433.139 86.3053 433.112 85.96L433.004 84.5133C432.979 84.168 432.679 83.9093 432.333 83.9346L432.084 83.9533C431.74 83.9786 431.48 84.2786 431.505 84.6253L431.613 86.072C431.639 86.4173 431.94 86.676 432.285 86.6506Z" fill="#32293E"/>
<path d="M427.815 86.9836L428.064 86.965C428.409 86.9397 428.668 86.6383 428.641 86.293L428.533 84.845C428.509 84.4997 428.208 84.241 427.861 84.2677L427.615 84.285C427.269 84.3116 427.011 84.6116 427.035 84.957L427.143 86.405C427.169 86.7503 427.471 87.009 427.815 86.9836Z" fill="#32293E"/>
<path d="M430.527 88.409C430.532 88.5063 430.617 88.5797 430.715 88.5717C430.812 88.5637 430.885 88.4797 430.877 88.3823C430.871 88.285 430.785 88.213 430.689 88.2197C430.591 88.2263 430.519 88.3117 430.527 88.409Z" fill="#A24F46"/>
<path d="M429.231 88.5052C429.239 88.6025 429.323 88.6759 429.419 88.6679C429.517 88.6612 429.589 88.5772 429.584 88.4785C429.576 88.3825 429.491 88.3092 429.393 88.3159C429.297 88.3239 429.224 88.4079 429.231 88.5052Z" fill="#A24F46"/>
<path d="M430.012 90.7173C429.92 90.228 430.243 89.7587 430.731 89.668L431.725 89.4813C432.213 89.3907 432.684 89.7133 432.775 90.2013C432.865 90.6893 432.544 91.1586 432.056 91.2506L431.061 91.436C430.573 91.528 430.103 91.2053 430.012 90.7173Z" fill="#A24F46"/>
<path d="M438.101 73.0196C438.903 77.3049 435.783 81.4809 431.136 82.3502C426.487 83.2196 422.071 80.4489 421.269 76.1649C420.469 71.8796 423.587 67.7022 428.236 66.8342C432.884 65.9662 437.301 68.7342 438.101 73.0196Z" fill="#32293E"/>
<path d="M418.468 123.267C418.832 122.687 418.656 121.92 418.076 121.556L412.177 117.856C411.596 117.492 410.831 117.667 410.468 118.248C410.103 118.828 410.279 119.593 410.859 119.957L416.757 123.659C417.339 124.023 418.104 123.847 418.468 123.267Z" fill="#B26F57"/>
<path d="M418.249 127.188C418.296 126.505 417.779 125.913 417.096 125.865L410.148 125.391C409.465 125.344 408.872 125.86 408.825 126.544C408.779 127.227 409.296 127.819 409.979 127.865L416.925 128.341C417.609 128.388 418.201 127.872 418.249 127.188Z" fill="#A24F46"/>
<path d="M417.011 124.288C417.163 123.62 416.747 122.955 416.079 122.803L409.291 121.249C408.623 121.096 407.957 121.513 407.804 122.181C407.651 122.849 408.069 123.515 408.736 123.667L415.525 125.221C416.193 125.373 416.859 124.956 417.011 124.288Z" fill="#A24F46"/>
<path d="M416.021 130.225C418.993 131.3 422.275 129.76 423.348 126.788C424.421 123.814 422.883 120.534 419.911 119.461C416.937 118.388 413.656 119.926 412.584 122.9C411.509 125.872 413.048 129.152 416.021 130.225Z" fill="#B26F57"/>
<path d="M420.049 122.628C420.775 122.288 421.085 121.424 420.747 120.7L418.973 116.923C418.635 116.199 417.771 115.888 417.047 116.227C416.321 116.567 416.011 117.431 416.351 118.155L418.123 121.931C418.463 122.656 419.325 122.968 420.049 122.628Z" fill="#B26F57"/>
<path d="M418.161 123.421C419.227 123.806 420.401 123.254 420.785 122.19C421.169 121.126 420.619 119.952 419.555 119.567C418.489 119.183 417.315 119.735 416.931 120.799C416.545 121.863 417.097 123.037 418.161 123.421Z" fill="#B26F57"/>
<path d="M442.377 126.325C445.461 126.581 448.167 124.289 448.423 121.208L450.801 102.023C451.057 98.9399 448.765 96.2332 445.684 95.9772C442.6 95.7212 439.895 98.0119 439.639 101.095L437.26 120.279C437.004 123.361 439.296 126.068 442.377 126.325Z" fill="#F26C6D"/>
<path d="M445.684 95.9774C443.321 95.788 441.001 97.2827 440.168 99.436C439.737 100.499 439.761 101.689 439.596 102.852L439.213 106.347L437.684 120.332L436.837 120.227L438.765 106.299L439.249 102.815C439.445 101.673 439.455 100.457 439.948 99.3427C440.897 97.124 443.333 95.7054 445.684 95.9774Z" fill="#FFA9AD"/>
<path d="M448.34 119.369C447.581 116.371 444.535 114.555 441.536 115.312L420.76 120.085C417.761 120.844 415.945 123.889 416.703 126.889C417.461 129.888 420.507 131.704 423.505 130.945L444.283 126.172C447.281 125.415 449.097 122.369 448.34 119.369Z" fill="#F26C6D"/>
<path d="M438.579 116.431L425.381 119.229L422.083 119.928C420.979 120.154 419.867 120.349 418.964 121.017C417.112 122.248 416.143 124.689 416.703 126.889C416.083 124.706 416.977 122.193 418.857 120.865C419.772 120.149 420.941 119.912 422.016 119.652L425.289 118.841L438.387 115.599L438.579 116.431Z" fill="#FFA9AD"/>
<path d="M437.08 117.96C436.448 116.773 436.473 115.527 437.136 115.173C437.799 114.823 438.845 115.5 439.476 116.687" fill="#F26C6D"/>
<path d="M437.08 117.96C436.723 117.575 436.475 117.087 436.376 116.54C436.28 116.028 436.309 115.289 436.977 114.876C437.695 114.553 438.323 114.943 438.695 115.308C439.091 115.696 439.357 116.175 439.476 116.687C439.113 116.311 438.764 115.959 438.369 115.712C437.984 115.468 437.536 115.324 437.295 115.472C437.035 115.589 436.904 116.041 436.891 116.499C436.873 116.964 436.971 117.449 437.08 117.96Z" fill="#FFA9AD"/>
<path d="M230.692 265.468H206.753V254.608H232.352L230.692 265.468Z" fill="#AF2C2C"/>
<path d="M215.639 320.296H230.332V318.513L227.937 316.341C227.155 315.632 225.908 315.212 224.58 315.212H217.823C216.617 315.212 215.639 315.86 215.639 316.656V320.296Z" fill="#ACD9EA"/>
<path d="M224.067 315.394L214.765 320.349H210.484L221.772 244.665H234.616L224.067 315.394Z" fill="#CE8B49"/>
<path d="M224.735 315.781L214.045 320.004C213.536 320.205 212.945 319.989 212.727 319.522C212.507 319.054 212.743 318.512 213.251 318.31L223.94 314.088C224.449 313.886 225.04 314.102 225.259 314.57C225.479 315.037 225.244 315.58 224.735 315.781Z" fill="#CE8B49"/>
<path d="M218.739 265.468H206.753V254.608H232.352C231.4 260.836 225.592 265.468 218.739 265.468Z" fill="#EFB06C"/>
<path d="M209.015 320.301H224.5V318.345L221.975 315.963C221.151 315.184 219.836 314.724 218.436 314.724H211.316C210.044 314.724 209.015 315.433 209.015 316.308V320.301Z" fill="#E6F5FF"/>
<path d="M218.165 314.712L210.12 320.349H206.753V250.842L220.936 250.226L218.165 314.712Z" fill="#EFB06C"/>
<path d="M218.784 314.134L210.611 319.942C210.221 320.22 209.661 320.154 209.36 319.797C209.057 319.44 209.128 318.925 209.519 318.648L217.691 312.838C218.08 312.562 218.64 312.628 218.941 312.984C219.244 313.342 219.173 313.857 218.784 314.134Z" fill="#EFB06C"/>
<path d="M245.589 213.061L254.145 203.6L258.424 198.869C259.157 198.104 259.793 197.236 260.649 196.573C261.5 195.917 262.511 195.483 263.56 195.311C262.519 195.524 261.536 195.996 260.727 196.669C259.92 197.344 259.316 198.237 258.612 199.031L254.521 203.925L246.34 213.713L245.589 213.061Z" fill="#3F8BC9"/>
<path d="M257.1 219.594C256.757 223.184 253.572 225.813 249.984 225.472L231.053 223.666C227.467 223.325 224.836 220.138 225.177 216.552C225.52 212.965 228.704 210.333 232.293 210.676L251.223 212.48C254.811 212.822 257.441 216.008 257.1 219.594Z" fill="#2571A5"/>
<path d="M225.177 216.552C225.348 214.214 226.88 212.021 229.069 211.058C230.155 210.584 231.381 210.39 232.561 210.522L236.051 210.79L250.011 211.865L249.916 212.856L236.005 211.273L232.527 210.877C231.388 210.712 230.232 210.858 229.161 211.277C227.024 212.13 225.428 214.218 225.177 216.552Z" fill="#3F8BC9"/>
<path d="M264.715 195.249C262.889 195.257 261.076 195.985 259.795 197.482L245.965 213.386C243.62 216.125 243.939 220.244 246.676 222.588C249.413 224.932 253.532 224.614 255.876 221.876L264.633 211.805L264.715 206.878V195.249Z" fill="#2571A5"/>
<path d="M252.14 213.951C251.481 212.529 247.86 209.895 247.068 210.261C246.275 210.629 246.165 212.079 246.824 213.5" fill="#2571A5"/>
<path d="M252.14 213.951C251.648 213.271 250.971 212.788 250.325 212.284C249.659 211.807 248.971 211.356 248.263 210.988C247.927 210.809 247.52 210.629 247.267 210.619C247.232 210.605 247.143 210.66 247.039 210.763C246.949 210.861 246.881 211.003 246.82 211.161C246.604 211.829 246.677 212.664 246.823 213.5C246.297 212.829 245.947 211.947 246.12 210.975C246.245 210.52 246.484 209.903 247.289 209.84C247.873 209.9 248.225 210.127 248.624 210.328C249.376 210.771 250.041 211.304 250.652 211.9C251.253 212.487 251.852 213.145 252.14 213.951Z" fill="#3F8BC9"/>
<path d="M264.715 189.189L262.428 194.304C262.359 194.457 262.323 194.617 262.304 194.777C261.027 196.693 260.868 199.243 262.137 201.341C262.773 202.396 263.683 203.179 264.715 203.677V189.189Z" fill="#F3AE9C"/>
<path d="M266.463 191.177C265.845 190.565 264.849 190.569 264.237 191.186L262.035 193.393C261.721 193.709 261.576 194.124 261.584 194.536C261.583 194.545 261.58 194.553 261.58 194.562L261.617 199.949C261.621 200.818 262.328 201.52 263.196 201.517C264.067 201.512 264.767 200.805 264.764 199.936L264.731 195.148L266.472 193.402C267.083 192.785 267.08 191.789 266.463 191.177Z" fill="#F3AE9C"/>
<path d="M221.38 208.108C227.949 207.08 233.941 212.018 234.184 218.662L234.796 253.372C234.809 254.228 234.501 255.06 233.92 255.689C230.528 259.36 220.299 261.082 207.665 260.909C205.673 260.881 204.147 259.122 204.4 257.145L209.011 220.961C209.785 214.386 214.841 209.133 221.38 208.108Z" fill="#3F8BC9"/>
<path d="M223.2 201.78C223.039 203.803 221.268 205.311 219.247 205.149C217.224 204.988 215.716 203.219 215.877 201.196C216.039 199.173 217.808 197.665 219.831 197.827C221.853 197.988 223.361 199.757 223.2 201.78Z" fill="#EE8556"/>
<path d="M212.595 195.481C213.431 201.49 218.979 205.686 224.989 204.85C230.999 204.016 235.193 198.466 234.359 192.456C233.524 186.445 227.973 182.25 221.964 183.086C215.955 183.922 211.759 189.472 212.595 195.481Z" fill="#EE8556"/>
<path d="M240.809 184.052C240.375 189.498 235.608 193.561 230.163 193.126C224.716 192.692 220.653 187.924 221.088 182.478C221.524 177.032 226.291 172.97 231.736 173.405C237.183 173.838 241.245 178.606 240.809 184.052Z" fill="#EE8556"/>
<path d="M228.189 193.299C231.101 197.783 230.979 203.283 227.915 205.581C224.849 207.879 220.003 206.107 217.089 201.623C214.176 197.139 214.3 191.639 217.364 189.34C220.429 187.041 225.276 188.813 228.189 193.299Z" fill="#EE8556"/>
<path d="M221.907 214.281C219.815 213.787 218.521 211.692 219.015 209.6L221.524 198.983L229.095 200.772L226.585 211.389C226.092 213.48 223.996 214.775 221.907 214.281Z" fill="#F3AE9C"/>
<path d="M235.284 197.11C237.084 201.574 235.564 206.398 231.885 207.882C228.207 209.366 223.764 206.952 221.963 202.486L220.544 198.973C218.743 194.509 220.263 189.685 223.941 188.201C227.62 186.716 232.064 189.132 233.864 193.596L235.284 197.11Z" fill="#FFC2B6"/>
<path d="M224.733 187.46C222.217 185.991 218.733 187.688 216.951 191.252C215.168 194.816 215.761 198.896 218.277 200.364C220.793 201.835 224.277 200.137 226.06 196.573C227.843 193.009 227.249 188.929 224.733 187.46Z" fill="#EE8556"/>
<path d="M225.567 203.517L222.221 204.241C221.011 204.504 219.815 203.734 219.553 202.524C219.291 201.31 220.06 200.117 221.271 199.854L222.271 199.638C223.567 199.357 224.843 200.18 225.124 201.474L225.567 203.517Z" fill="#FFC2B6"/>
<path d="M222.901 201.638C223.088 202.156 222.821 202.728 222.304 202.916C221.785 203.102 221.215 202.834 221.027 202.317C220.84 201.8 221.108 201.228 221.625 201.041C222.143 200.854 222.715 201.121 222.901 201.638Z" fill="#F3AE9C"/>
<path d="M230.509 196.028L228.085 196.438C227.841 196.478 227.608 196.314 227.567 196.069C227.525 195.824 227.691 195.59 227.936 195.549L230.36 195.138C230.604 195.097 230.837 195.262 230.877 195.509C230.919 195.753 230.753 195.986 230.509 196.028Z" fill="#D36033"/>
<path d="M234.385 195.371L231.964 195.781C231.717 195.823 231.485 195.657 231.444 195.413C231.403 195.168 231.568 194.935 231.812 194.893L234.236 194.483C234.48 194.441 234.713 194.607 234.755 194.852C234.797 195.097 234.632 195.329 234.385 195.371Z" fill="#D36033"/>
<path d="M228.609 184.327C228.303 188.187 224.923 191.065 221.064 190.757C217.204 190.449 214.325 187.071 214.635 183.212C214.941 179.352 218.32 176.473 222.18 176.781C226.039 177.089 228.917 180.468 228.609 184.327Z" fill="#EE8556"/>
<path d="M220.855 188.933C220.64 191.6 218.307 193.589 215.639 193.377C212.972 193.164 210.983 190.829 211.195 188.162C211.409 185.496 213.744 183.505 216.411 183.718C219.077 183.932 221.067 186.266 220.855 188.933Z" fill="#EE8556"/>
<path d="M231.151 191.093C230.937 193.76 228.603 195.75 225.936 195.537C223.269 195.324 221.28 192.989 221.492 190.322C221.704 187.656 224.039 185.666 226.707 185.88C229.373 186.092 231.363 188.426 231.151 191.093Z" fill="#EE8556"/>
<path d="M218.288 194.693C218.127 196.714 216.357 198.224 214.335 198.062C212.311 197.901 210.804 196.132 210.965 194.109C211.127 192.086 212.896 190.578 214.917 190.74C216.94 190.901 218.449 192.67 218.288 194.693Z" fill="#EE8556"/>
<path d="M219.773 198.95C219.613 200.972 217.843 202.481 215.82 202.32C213.799 202.158 212.289 200.388 212.451 198.365C212.612 196.344 214.383 194.836 216.405 194.997C218.427 195.158 219.935 196.928 219.773 198.95Z" fill="#EE8556"/>
<path d="M230.651 199.724C230.163 199.815 229.693 199.493 229.601 199.005L229.416 198.011C229.325 197.523 229.647 197.052 230.136 196.961C230.624 196.869 231.093 197.192 231.185 197.68L231.369 198.675C231.461 199.163 231.139 199.633 230.651 199.724Z" fill="#055A7F"/>
<path d="M235.341 202.192C235.501 204.041 234.527 204.941 233.237 205.052C231.948 205.163 230.833 204.444 230.675 202.593L235.341 202.192Z" fill="#FCE3E4"/>
<path d="M234.505 198.968C234.017 199.058 233.547 198.737 233.456 198.249L233.269 197.253C233.179 196.765 233.501 196.296 233.989 196.204C234.477 196.113 234.947 196.434 235.037 196.922L235.224 197.917C235.315 198.406 234.993 198.876 234.505 198.968Z" fill="#055A7F"/>
<path d="M233.151 201.211C233.177 201.353 233.083 201.489 232.941 201.517C232.799 201.543 232.661 201.449 232.636 201.307C232.608 201.164 232.701 201.028 232.845 201.001C232.987 200.973 233.124 201.068 233.151 201.211Z" fill="#F3AE9C"/>
<path d="M234.457 201.052C234.484 201.195 234.391 201.331 234.248 201.359C234.105 201.384 233.969 201.291 233.941 201.148C233.916 201.005 234.009 200.868 234.151 200.843C234.295 200.815 234.431 200.909 234.457 201.052Z" fill="#F3AE9C"/>
<path d="M242.043 246.814C239.296 249.146 235.177 248.809 232.845 246.062L220.541 231.562C218.209 228.814 218.547 224.696 221.296 222.364C224.043 220.033 228.16 220.37 230.492 223.118L242.796 237.618C245.128 240.365 244.791 244.484 242.043 246.814Z" fill="#3F8BC9"/>
<path d="M221.295 222.364C223.123 220.731 225.921 220.271 228.212 221.268C229.375 221.72 230.336 222.62 231.104 223.552L233.519 226.301L243.176 237.297L242.416 237.94L233.139 226.623L230.82 223.793C230.075 222.829 229.225 221.981 228.112 221.496C225.943 220.461 223.181 220.793 221.295 222.364Z" fill="#6CADEF"/>
<path d="M232.851 238.044C234.616 234.904 238.595 233.789 241.736 235.554L262.981 247.472C266.124 249.24 267.239 253.217 265.472 256.36C263.705 259.5 259.727 260.614 256.585 258.849L235.34 246.929C232.197 245.164 231.083 241.186 232.851 238.044Z" fill="#3F8BC9"/>
<path d="M241.979 235.121L256.949 243.804L260.692 245.973L262.563 247.06C263.188 247.403 263.824 247.817 264.345 248.331C266.517 250.363 266.971 253.864 265.472 256.36C266.897 253.817 266.32 250.401 264.175 248.512C263.651 248.028 263.059 247.664 262.412 247.331L260.509 246.3L256.705 244.237L241.492 235.988L241.979 235.121Z" fill="#6CADEF"/>
<path d="M241.348 237.677C242.417 236.535 242.771 235.125 242.133 234.528C241.496 233.929 240.111 234.372 239.04 235.515" fill="#3F8BC9"/>
<path d="M241.348 237.677C241.625 237.137 241.881 236.62 242.005 236.091C242.129 235.575 242.12 235.025 241.864 234.813C241.637 234.575 241.088 234.6 240.583 234.756C240.063 234.915 239.563 235.203 239.04 235.515C239.331 234.975 239.775 234.519 240.34 234.203C240.868 233.905 241.695 233.659 242.401 234.241C243.027 234.909 242.835 235.749 242.571 236.296C242.293 236.879 241.865 237.353 241.348 237.677Z" fill="#6CADEF"/>
<path d="M269.357 251.365C270.257 254.628 268.344 258.003 265.083 258.904C261.82 259.804 258.447 257.892 257.544 254.631C256.643 251.368 258.557 247.993 261.819 247.092C265.081 246.192 268.455 248.105 269.357 251.365Z" fill="#FFC2B6"/>
<path d="M266.055 245.51L262.275 250.052C261.689 250.754 260.644 250.852 259.94 250.265C259.237 249.68 259.141 248.636 259.727 247.93L263.508 243.389C264.092 242.686 265.139 242.589 265.841 243.176C266.545 243.761 266.64 244.806 266.055 245.51Z" fill="#FFC2B6"/>
<path d="M267.639 249.124L262.268 250.108C261.436 250.26 260.639 249.709 260.485 248.877C260.333 248.045 260.884 247.248 261.716 247.094L267.087 246.109C267.919 245.957 268.717 246.508 268.869 247.34C269.023 248.172 268.472 248.97 267.639 249.124Z" fill="#FFC2B6"/>
</svg>
