<svg width="40" height="41" viewBox="0 0 40 41" fill="none" xmlns="http://www.w3.org/2000/svg">
<g clip-path="url(#clip0_573_592)">
<path d="M27.6 29.5L21.3 23.2C20.8 23.6 20.225 23.9167 19.575 24.15C18.925 24.3833 18.2333 24.5 17.5 24.5C15.6833 24.5 14.1458 23.8708 12.8875 22.6125C11.6292 21.3542 11 19.8167 11 18C11 16.1833 11.6292 14.6458 12.8875 13.3875C14.1458 12.1292 15.6833 11.5 17.5 11.5C19.3167 11.5 20.8542 12.1292 22.1125 13.3875C23.3708 14.6458 24 16.1833 24 18C24 18.7333 23.8833 19.425 23.65 20.075C23.4167 20.725 23.1 21.3 22.7 21.8L29 28.1L27.6 29.5ZM17.5 22.5C18.75 22.5 19.8125 22.0625 20.6875 21.1875C21.5625 20.3125 22 19.25 22 18C22 16.75 21.5625 15.6875 20.6875 14.8125C19.8125 13.9375 18.75 13.5 17.5 13.5C16.25 13.5 15.1875 13.9375 14.3125 14.8125C13.4375 15.6875 13 16.75 13 18C13 19.25 13.4375 20.3125 14.3125 21.1875C15.1875 22.0625 16.25 22.5 17.5 22.5Z" fill="#023564"/>
</g>
<defs>
<clipPath id="clip0_573_592">
<rect y="0.5" width="40" height="40" rx="20" fill="white"/>
</clipPath>
</defs>
</svg>
